<?xml version="1.0" encoding="UTF-8"?>
<svg width="131px" height="131px" viewBox="0 0 131 131" version="1.1" xmlns="http://www.w3.org/2000/svg" xmlns:xlink="http://www.w3.org/1999/xlink">
    <!-- Generator: Sketch 52.5 (67469) - http://www.bohemiancoding.com/sketch -->
    <title>auction icon</title>
    <desc>Created with Sketch.</desc>
    <defs>
        <filter x="-6.7%" y="-12.1%" width="113.4%" height="124.3%" filterUnits="objectBoundingBox" id="filter-1">
            <feOffset dx="0" dy="0" in="SourceAlpha" result="shadowOffsetOuter1"></feOffset>
            <feGaussianBlur stdDeviation="7.5" in="shadowOffsetOuter1" result="shadowBlurOuter1"></feGaussianBlur>
            <feColorMatrix values="0 0 0 0 0   0 0 0 0 0   0 0 0 0 0  0 0 0 0.0995244565 0" type="matrix" in="shadowBlurOuter1" result="shadowMatrixOuter1"></feColorMatrix>
            <feMerge>
                <feMergeNode in="shadowMatrixOuter1"></feMergeNode>
                <feMergeNode in="SourceGraphic"></feMergeNode>
            </feMerge>
        </filter>
        <polygon id="path-2" points="0 101 101 101 101 0 0 0"></polygon>
    </defs>
    <g id="Desktop" stroke="none" stroke-width="1" fill="none" fill-rule="evenodd">
        <g id="Hennings-Category-page" transform="translate(-257.000000, -1207.000000)">
            <g id="Services-Copy" transform="translate(100.000000, 1180.000000)">
                <g id="Auction-Packs-and-Reports" filter="url(#filter-1)" transform="translate(0.000000, 2.000000)">
                    <g id="auction-icon" transform="translate(172.000000, 40.000000)">
                        <path d="M100.4998,50.4996 C100.4998,78.1136 78.1138,100.4996 50.4998,100.4996 C22.8858,100.4996 0.4998,78.1136 0.4998,50.4996 C0.4998,22.8856 22.8858,0.4996 50.4998,0.4996 C78.1138,0.4996 100.4998,22.8856 100.4998,50.4996 Z" id="Stroke-1" stroke="#99C8CC"></path>
                        <mask id="mask-3" fill="white">
                            <use xlink:href="#path-2"></use>
                        </mask>
                        <g id="Clip-4"></g>
                        <path d="M57.262,59.862 L62.47,59.862 L62.47,54.654 L57.262,54.654 L57.262,59.862 Z M63.306,61.533 L56.428,61.533 C55.966,61.533 55.592,61.158 55.592,60.697 L55.592,53.819 C55.592,53.357 55.966,52.983 56.428,52.983 L63.306,52.983 C63.767,52.983 64.141,53.357 64.141,53.819 L64.141,60.697 C64.141,61.158 63.767,61.533 63.306,61.533 Z" id="Fill-3" fill="#00757F" mask="url(#mask-3)"></path>
                        <path d="M72.4417,50.6451 L51.0907,29.2931 C50.9277,29.1301 50.7137,29.0491 50.5007,29.0491 C50.2857,29.0491 50.0727,29.1301 49.9087,29.2931 L29.8867,49.3171 C29.8857,49.3171 29.8857,49.3181 29.8847,49.3191 L28.5587,50.6451 L25.7087,47.7951 L47.0587,26.4441 C47.0927,26.4101 47.1237,26.3731 47.1497,26.3331 L50.5007,22.9841 L53.8467,26.3311 C53.8747,26.3721 53.9057,26.4091 53.9417,26.4441 L60.3207,32.8241 C60.3207,32.8241 60.3217,32.8251 60.3227,32.8261 L75.2917,47.7951 L72.4417,50.6451 Z M61.7477,24.9031 L68.7307,24.9031 L68.7307,38.8711 L61.7477,31.8871 L61.7477,24.9031 Z M77.0647,47.2051 L70.4007,40.5411 L70.4007,24.0681 C70.4007,23.6071 70.0267,23.2331 69.5657,23.2331 L60.9127,23.2331 C60.4507,23.2331 60.0767,23.6071 60.0767,24.0681 L60.0767,30.2161 L55.2267,25.3661 C55.1987,25.3261 55.1667,25.2891 55.1317,25.2531 L51.1007,21.2211 C50.9757,21.0971 50.8207,21.0211 50.6577,20.9941 C50.3907,20.9401 50.1057,21.0151 49.8997,21.2211 L45.8687,25.2531 C45.8347,25.2871 45.8037,25.3241 45.7767,25.3631 L23.9357,47.2051 C23.7787,47.3611 23.6917,47.5731 23.6917,47.7951 C23.6917,48.0161 23.7787,48.2291 23.9357,48.3851 L27.9677,52.4161 C28.2947,52.7441 28.8227,52.7441 29.1497,52.4161 L29.6407,51.9251 L29.6407,55.8251 C30.1857,55.7081 30.7407,55.6181 31.3117,55.5681 L31.3117,50.2541 L50.5007,31.0661 L69.6887,50.2541 L69.6887,70.3521 L49.7787,70.3521 L49.7787,53.8191 C49.7787,53.3571 49.4047,52.9831 48.9437,52.9831 L38.6897,52.9831 C38.2287,52.9831 37.8547,53.3571 37.8547,53.8191 L37.8547,56.5121 C38.4307,56.7511 38.9837,57.0481 39.5257,57.3731 L39.5257,54.6541 L48.1087,54.6541 L48.1087,71.1871 C48.1087,71.6481 48.4827,72.0231 48.9437,72.0231 L70.5237,72.0231 C70.9847,72.0231 71.3587,71.6481 71.3587,71.1871 L71.3587,51.9241 L71.8507,52.4161 C72.0137,52.5801 72.2287,52.6621 72.4417,52.6621 C72.6547,52.6621 72.8697,52.5801 73.0317,52.4161 L77.0647,48.3851 C77.2207,48.2291 77.3087,48.0161 77.3087,47.7951 C77.3087,47.5731 77.2207,47.3611 77.0647,47.2051 Z" id="Fill-5" fill="#00757F" mask="url(#mask-3)"></path>
                        <path d="M29.6409,60.8737 L29.6409,71.1867 C29.6409,71.6477 30.0149,72.0227 30.4759,72.0227 L38.6899,72.0227 C39.1509,72.0227 39.5259,71.6477 39.5259,71.1867 L39.5259,63.7207 C39.3119,63.4557 39.0859,63.1967 38.8349,62.9457 C38.5199,62.6317 38.1899,62.3547 37.8539,62.0997 L37.8539,70.3527 L31.3109,70.3527 L31.3109,60.4737 C30.7299,60.5527 30.1729,60.6857 29.6409,60.8737" id="Fill-6" fill="#00757F" mask="url(#mask-3)"></path>
                        <path d="M25.3479,76.4342 C27.3539,78.4402 29.7789,79.4432 32.6219,79.4432 C35.4649,79.4432 37.8899,78.4402 39.8959,76.4342 C41.9019,74.4282 42.9049,72.0032 42.9049,69.1602 C42.9049,66.3172 41.9019,63.8922 39.8959,61.8862 C37.8899,59.8802 35.4649,58.8772 32.6219,58.8772 C29.7789,58.8772 27.3539,59.8802 25.3479,61.8862 C23.3419,63.8922 22.3389,66.3172 22.3389,69.1602 C22.3389,72.0032 23.3419,74.4282 25.3479,76.4342 M24.0339,60.5722 C26.4099,58.1962 29.2719,57.0072 32.6219,57.0072 C35.9719,57.0072 38.8339,58.1962 41.2099,60.5722 C43.5859,62.9482 44.7739,65.8102 44.7739,69.1602 C44.7739,72.0032 43.8789,74.5542 42.0869,76.8142 L50.0909,84.8182 C50.3639,85.0512 50.4999,85.3542 50.4999,85.7232 C50.4999,86.0932 50.3729,86.4052 50.1199,86.6592 C49.8669,86.9122 49.5559,87.0392 49.1849,87.0392 C48.8149,87.0392 48.5139,86.9022 48.2799,86.6292 L40.2759,78.6242 C38.0159,80.4162 35.4649,81.3132 32.6219,81.3132 C29.2719,81.3132 26.4099,80.1242 24.0339,77.7482 C21.6579,75.3722 20.4699,72.5102 20.4699,69.1602 C20.4699,65.8102 21.6579,62.9482 24.0339,60.5722" id="Fill-7" fill="#00757F" mask="url(#mask-3)"></path>
                    </g>
                </g>
            </g>
        </g>
    </g>
</svg>