<?xml version="1.0" encoding="UTF-8"?>
<svg width="130px" height="130px" viewBox="0 0 130 130" version="1.1" xmlns="http://www.w3.org/2000/svg" xmlns:xlink="http://www.w3.org/1999/xlink">
    <!-- Generator: Sketch 52.5 (67469) - http://www.bohemiancoding.com/sketch -->
    <title>buying or selling icon</title>
    <desc>Created with Sketch.</desc>
    <defs>
        <filter x="-6.7%" y="-12.1%" width="113.4%" height="124.3%" filterUnits="objectBoundingBox" id="filter-1">
            <feOffset dx="0" dy="0" in="SourceAlpha" result="shadowOffsetOuter1"></feOffset>
            <feGaussianBlur stdDeviation="7.5" in="shadowOffsetOuter1" result="shadowBlurOuter1"></feGaussianBlur>
            <feColorMatrix values="0 0 0 0 0   0 0 0 0 0   0 0 0 0 0  0 0 0 0.0995244565 0" type="matrix" in="shadowBlurOuter1" result="shadowMatrixOuter1"></feColorMatrix>
            <feMerge>
                <feMergeNode in="shadowMatrixOuter1"></feMergeNode>
                <feMergeNode in="SourceGraphic"></feMergeNode>
            </feMerge>
        </filter>
    </defs>
    <g id="Desktop" stroke="none" stroke-width="1" fill="none" fill-rule="evenodd">
        <g id="Hennings-Category-page" transform="translate(-737.000000, -922.000000)">
            <g id="Services" transform="translate(100.000000, 612.000000)">
                <g id="BUYING-OR-SELLING" filter="url(#filter-1)" transform="translate(480.000000, 285.000000)">
                    <g id="buying-or-selling-icon" transform="translate(172.000000, 40.000000)">
                        <path d="M99.5049505,50 C99.5049505,77.3405941 77.3405941,99.5049505 50,99.5049505 C22.6594059,99.5049505 0.495049505,77.3405941 0.495049505,50 C0.495049505,22.6594059 22.6594059,0.495049505 50,0.495049505 C77.3405941,0.495049505 99.5049505,22.6594059 99.5049505,50 Z" id="Stroke-1" stroke="#99C8CC"></path>
                        <path d="M71.9572277,44.0946535 C69.9720792,45.499604 66.930495,47.1471287 63.370099,47.4936634 L63.4671287,48.4758416 L64.2413861,47.8639604 C63.3720792,46.7689109 62.2532673,45.8550495 61.1512871,45.0213861 C60.050297,44.1916832 58.9582178,43.4411881 58.1661386,42.7609901 C57.350297,42.0590099 56.5047525,41.6689109 55.7928713,41.46 C55.0819802,41.2491089 54.5057426,41.2144554 54.1908911,41.2144554 C54.050297,41.2144554 53.9621782,41.2213861 53.9344554,41.2243564 L53.9205941,41.2253465 L53.8542574,41.2322772 C53.5364356,41.2639604 52.1126733,41.3926733 50.6176238,41.3926733 C49.98,41.3926733 49.3275248,41.3679208 48.7552475,41.3065347 C48.4374257,41.2728713 48.1364356,41.2550495 47.8522772,41.2550495 C47.3621782,41.2550495 46.9136634,41.3065347 46.499802,41.4263366 C45.8780198,41.6005941 45.3314851,41.9609901 44.9651485,42.4392079 C44.5938614,42.9154455 44.3938614,43.4629703 44.2681188,44.0283168 L44.2443564,44.2421782 C44.2493069,44.5590099 44.1186139,45.110495 43.8819802,45.7005941 C43.529505,46.5926733 42.970099,47.5877228 42.5007921,48.3421782 C42.2661386,48.7194059 42.0542574,49.0392079 41.9027723,49.2629703 C41.8265347,49.3738614 41.7661386,49.4609901 41.7255446,49.520396 L41.6770297,49.5857426 L41.6631683,49.6055446 C41.4889109,49.8491089 41.4324752,50.1580198 41.5116832,50.4471287 C41.5918812,50.7362376 41.7958416,50.9718812 42.070099,51.089703 C42.1384158,51.1144554 43.5087129,51.7253465 45.2245545,51.7332673 C45.7562376,51.7322772 46.3255446,51.6708911 46.8978218,51.4946535 C47.7552475,51.2342574 48.6205941,50.6877228 49.2473267,49.7827723 C49.8790099,48.879802 50.2691089,47.6669307 50.3681188,46.0966337 C50.4037624,45.5530693 49.989901,45.0837624 49.4473267,45.0481188 C48.9027723,45.0124752 48.4314851,45.4263366 48.3978218,45.9708911 C48.340396,46.8481188 48.1809901,47.5154455 47.9730693,48.0144554 C47.6542574,48.7639604 47.2552475,49.1481188 46.8007921,49.4035644 C46.3443564,49.6540594 45.7918812,49.7590099 45.2245545,49.7580198 C44.6146535,49.7590099 44.0037624,49.6372277 43.5552475,49.5144554 C43.3324752,49.4510891 43.1493069,49.3887129 43.0275248,49.3451485 L42.8908911,49.2926733 L42.8592079,49.279802 L42.8542574,49.2788119 L42.709703,49.6184158 L42.8562376,49.2788119 L42.8542574,49.2788119 L42.709703,49.6184158 L42.8562376,49.2788119 L42.4651485,50.1857426 L43.2641584,50.7649505 C43.2770297,50.7461386 43.9859406,49.7669307 44.7077228,48.4946535 C45.0681188,47.8570297 45.4334653,47.1461386 45.7176238,46.4273267 C45.9988119,45.7045545 46.2146535,44.9847525 46.2186139,44.2421782 L45.2314851,44.2421782 L46.1958416,44.4570297 C46.2542574,44.1956436 46.3255446,43.9916832 46.4027723,43.8441584 C46.5245545,43.6194059 46.6235644,43.5184158 46.8126733,43.4164356 C47.0027723,43.3164356 47.3245545,43.230297 47.8522772,43.230297 C48.0532673,43.230297 48.2859406,43.2431683 48.5453465,43.2708911 C49.2176238,43.3421782 49.930495,43.3669307 50.6176238,43.3679208 C52.4493069,43.3659406 54.1067327,43.1916832 54.1265347,43.189703 L54.0235644,42.2075248 L54.1136634,43.1906931 L54.1136634,43.1916832 L54.1908911,43.189703 C54.3562376,43.189703 54.7473267,43.209505 55.2334653,43.3530693 C55.719604,43.4976238 56.299802,43.7619802 56.8809901,44.26 C57.7978218,45.0441584 58.9057426,45.8005941 59.9621782,46.5976238 C61.0166337,47.3926733 62.0136634,48.2283168 62.6928713,49.0887129 C62.9017822,49.3530693 63.2285149,49.4916832 63.5631683,49.4590099 C67.6146535,49.0580198 70.9374257,47.2322772 73.0978218,45.7065347 C73.5433663,45.3926733 73.650297,44.7758416 73.3354455,44.3312871 C73.019604,43.8847525 72.4037624,43.779802 71.9572277,44.0946535" id="Fill-3" fill="#00757F"></path>
                        <path d="M48.8136634,48.6434653 C48.8918812,48.6751485 49.98,49.1682178 51.5245545,49.1721782 C52.4621782,49.1721782 53.5760396,48.9810891 54.6730693,48.3583168 C55.1463366,48.09 55.3146535,47.4860396 55.0453465,47.0117822 C54.7760396,46.5375248 54.1730693,46.3711881 53.699802,46.640495 C52.9522772,47.0632673 52.1988119,47.1969307 51.5245545,47.1969307 C50.9710891,47.1969307 50.4780198,47.1028713 50.1324752,47.0107921 C49.9582178,46.9632673 49.8245545,46.9177228 49.7364356,46.8850495 L49.6413861,46.8484158 L49.6235644,46.840495 L49.6225743,46.840495 L49.3790099,47.3909901 L49.6265347,46.8424752 L49.6225743,46.840495 L49.3790099,47.3909901 L49.6265347,46.8424752 C49.130495,46.6187129 48.5453465,46.839505 48.3205941,47.3365347 C48.0958416,47.8335644 48.3176238,48.4187129 48.8136634,48.6434653" id="Fill-5" fill="#00757F"></path>
                        <path d="M52.010198,49.0737624 C52.0111881,49.0747525 52.1993069,49.230198 52.5408911,49.5153465 C53.7339604,50.5153465 56.7676238,53.0767327 59.8507921,55.8519802 C61.3933663,57.2381188 62.9458416,58.6806931 64.2834653,60.000495 C65.6191089,61.3183168 66.7448515,62.5272277 67.3993069,63.3985149 L68.1874257,62.8024752 L67.379505,63.3707921 C67.5606931,63.6311881 67.6210891,63.8579208 67.6220792,64.0886139 C67.6250495,64.4440594 67.4478218,64.8420792 67.1151485,65.1559406 C66.7834653,65.4688119 66.3240594,65.6707921 65.8349505,65.669802 C65.4587129,65.6678218 65.0517822,65.559901 64.6012871,65.2490099 C63.9814851,64.8173267 63.1844554,64.1678218 62.3567327,63.4440594 C61.1131683,62.3589109 59.7913861,61.1054455 58.7854455,60.1272277 C58.2824752,59.6391089 57.8557426,59.2163366 57.5587129,58.9193069 C57.4082178,58.7707921 57.290396,58.6519802 57.210198,58.5717822 C57.13,58.4905941 57.0894059,58.4480198 57.0894059,58.4480198 C56.7052475,58.0589109 56.080495,58.0529703 55.6913861,58.4351485 C55.3022772,58.8193069 55.2973267,59.4440594 55.6814851,59.8321782 C55.6864356,59.8371287 56.9339604,61.1054455 58.5240594,62.6133663 C59.3191089,63.3688119 60.1993069,64.1836634 61.0577228,64.9321782 C61.9171287,65.6816832 62.7488119,66.3648515 63.4715842,66.869802 C64.2250495,67.3965347 65.0517822,67.6470297 65.8349505,67.6440594 C66.8646535,67.6430693 67.7923762,67.230198 68.469604,66.5935644 C69.1448515,65.9579208 69.5943564,65.0717822 69.5973267,64.0886139 C69.600297,63.4589109 69.3993069,62.8054455 68.9943564,62.2341584 L68.9765347,62.2084158 C68.0973267,61.0470297 66.7012871,59.589604 65.0715842,58.010396 C60.1973267,53.2856436 53.2785149,47.5608911 53.269604,47.5519802 C52.849802,47.2044554 52.2270297,47.2628713 51.879505,47.6836634 C51.5309901,48.1034653 51.590396,48.7262376 52.010198,49.0737624" id="Fill-7" fill="#00757F"></path>
                        <path d="M62.8181188,66.539703 L63.1428713,66.3139604 L62.8082178,66.5248515 L62.8181188,66.539703 L63.1428713,66.3139604 L62.8082178,66.5248515 C62.8191089,66.5357426 62.9745545,66.8228713 62.9676238,67.0991089 C62.9646535,67.2624752 62.9359406,67.4248515 62.7993069,67.6416832 C62.5507921,68.029802 62.2389109,68.4723762 61.880495,68.7852475 C61.700297,68.9426733 61.5141584,69.0664356 61.3210891,69.149604 C61.1280198,69.2327723 60.9290099,69.280297 60.6884158,69.2812871 C60.3111881,69.280297 59.8022772,69.159505 59.1082178,68.7238614 C57.8468317,67.9377228 56.2973267,66.3723762 55.1230693,65.0218812 C54.5309901,64.3456436 54.0250495,63.7228713 53.6686139,63.2694059 C53.4894059,63.0436634 53.3488119,62.860495 53.2537624,62.7347525 L53.1438614,62.5911881 L53.1092079,62.5426733 C52.7864356,62.1050495 52.1676238,62.01 51.7290099,62.3337624 C51.2884158,62.6575248 51.1963366,63.2753465 51.520099,63.7139604 C51.53,63.7288119 52.3983168,64.9070297 53.6369307,66.3228713 C54.8814851,67.7406931 56.469604,69.3921782 58.0567327,70.3971287 C58.9785149,70.9773267 59.8636634,71.2575248 60.6884158,71.2565347 C61.2062376,71.2575248 61.6874257,71.1436634 62.1052475,70.9614851 C62.7349505,70.6892079 63.2191089,70.2743564 63.5953465,69.8624752 C63.9735644,69.4505941 64.2527723,69.0317822 64.4606931,68.71 C64.8121782,68.1684158 64.9458416,67.5892079 64.9428713,67.0991089 C64.9428713,66.6080198 64.8220792,66.2060396 64.7072277,65.9208911 C64.5894059,65.6347525 64.4725743,65.459505 64.4418812,65.4159406 C64.1319802,64.9674257 63.5171287,64.8555446 63.0686139,65.1664356 C62.620099,65.4763366 62.5082178,66.0911881 62.8181188,66.539703" id="Fill-9" fill="#00757F"></path>
                        <path d="M57.6626733,69.9180198 L58.2705941,69.6813861 L57.6537624,69.8972277 L57.6626733,69.9180198 L58.2705941,69.6813861 L57.6537624,69.8972277 L57.7715842,69.8566337 L57.6527723,69.8932673 L57.6537624,69.8972277 L57.7715842,69.8566337 L57.6527723,69.8932673 C57.6537624,69.8992079 57.6864356,70.0061386 57.6854455,70.1586139 C57.6854455,70.310099 57.659703,70.5021782 57.5517822,70.729901 C57.4408911,70.9586139 57.2458416,71.2348515 56.8438614,71.5417822 C56.4349505,71.8477228 56.0854455,71.9348515 55.7072277,71.9407921 C55.3369307,71.9417822 54.9359406,71.8318812 54.5636634,71.6645545 C54.1913861,71.4982178 53.8557426,71.2823762 53.6131683,71.1110891 L53.5111881,71.0259406 C53.279505,70.8239604 52.8369307,70.3714851 52.3389109,69.8388119 C51.5874257,69.0348515 50.6864356,68.0279208 49.9765347,67.2239604 C49.6220792,66.8219802 49.3131683,66.470495 49.0953465,66.22 C48.8755446,65.969505 48.7458416,65.8190099 48.7458416,65.8190099 C48.3884158,65.4081188 47.7646535,65.3625743 47.3527723,65.7209901 C46.9408911,66.0784158 46.8953465,66.7021782 47.2527723,67.1130693 C47.2547525,67.1150495 48.3171287,68.339802 49.4824752,69.6407921 C50.0666337,70.290297 50.6755446,70.9586139 51.1983168,71.5081188 C51.459703,71.7843564 51.700297,72.0289109 51.9082178,72.2308911 C52.0121782,72.3328713 52.1092079,72.4229703 52.200297,72.5041584 C52.2933663,72.5853465 52.3775248,72.6576238 52.480495,72.7308911 C52.7755446,72.9368317 53.2151485,73.2249505 53.759703,73.4685149 C54.3032673,73.710099 54.9626733,73.9140594 55.7072277,73.9150495 C56.459703,73.9209901 57.300297,73.6843564 58.0408911,73.1130693 C58.6646535,72.639802 59.0854455,72.1051485 59.3339604,71.5813861 C59.5844554,71.0566337 59.6626733,70.5556436 59.6606931,70.1586139 C59.659703,69.6289109 59.5339604,69.2823762 59.5022772,69.2011881 C59.3042574,68.6932673 58.7319802,68.4417822 58.2240594,68.639802 C57.7171287,68.8378218 57.4646535,69.410099 57.6626733,69.9180198" id="Fill-11" fill="#00757F"></path>
                        <path d="M52.1609901,72.2859406 L52.4857426,72.2859406 L52.1609901,72.2760396 L52.1609901,72.2859406 L52.4857426,72.2859406 L52.1609901,72.2760396 C52.1649505,72.2968317 52.130297,72.6433663 52.0045545,72.8572277 C51.9421782,72.9681188 51.8758416,73.0443564 51.7847525,73.1017822 C51.6926733,73.1572277 51.5629703,73.2136634 51.2817822,73.2156436 C51.0174257,73.2166337 50.6174257,73.1532673 50.0768317,72.9493069 L49.7293069,73.8740594 L50.1411881,72.9770297 C49.0540594,72.4770297 48.4184158,72.0908911 48.0738614,71.8512871 C47.9015842,71.729505 47.8035644,71.6473267 47.7580198,71.6057426 L47.7243564,71.5740594 L47.3332673,71.9443564 L47.7540594,71.6087129 L47.7243564,71.5740594 L47.3332673,71.9443564 L47.7540594,71.6087129 C47.4124752,71.1839604 46.7916832,71.1136634 46.3649505,71.4542574 C45.9392079,71.7948515 45.869901,72.4166337 46.2114851,72.8423762 C46.3619802,73.0245545 46.9768317,73.6938614 49.3174257,74.7720792 L49.3817822,74.7988119 C50.089703,75.0631683 50.7124752,75.1918812 51.2817822,75.1918812 C51.9154455,75.1948515 52.4867327,75.019604 52.9194059,74.7186139 C53.2441584,74.4968317 53.4827723,74.2205941 53.6530693,73.9493069 C53.909505,73.5384158 54.0194059,73.1413861 54.0778218,72.8423762 C54.1342574,72.540396 54.1362376,72.3334653 54.1362376,72.2859406 C54.1362376,71.7413861 53.6946535,71.299802 53.1491089,71.299802 C52.6035644,71.299802 52.1609901,71.7413861 52.1609901,72.2859406" id="Fill-13" fill="#00757F"></path>
                        <path d="M58.7378218,45.3072277 C58.7714851,45.3042574 59.4576238,45.2379208 60.3982178,44.9983168 C61.3378218,44.7567327 62.5348515,44.3527723 63.6061386,43.6072277 L63.7318812,43.5339604 L63.739802,43.5319802 L63.7031683,43.4022772 L63.7031683,43.5359406 L63.739802,43.5319802 L63.7031683,43.4022772 L63.7031683,43.5359406 L63.7031683,43.2240594 L63.5289109,43.4824752 L63.7031683,43.5359406 L63.7031683,43.2240594 L63.5289109,43.4824752 L63.6457426,43.3082178 L63.4982178,43.4557426 L63.5289109,43.4824752 L63.6457426,43.3082178 L63.4982178,43.4557426 L63.5289109,43.4250495 L63.4922772,43.4517822 L63.4982178,43.4557426 L63.5289109,43.4250495 L63.4922772,43.4517822 C63.4982178,43.4577228 63.5348515,43.5191089 63.5615842,43.6290099 C63.590297,43.7379208 63.6110891,43.8923762 63.6110891,44.0745545 C63.6120792,44.4676238 63.5140594,44.9834653 63.2863366,45.4923762 C63.059604,46.0022772 62.7081188,46.5092079 62.2130693,46.9329703 C61.7992079,47.2874257 61.7516832,47.910198 62.1061386,48.3240594 C62.4615842,48.7389109 63.0853465,48.7874257 63.4992079,48.4319802 C64.2338614,47.8022772 64.7536634,47.0517822 65.0912871,46.2953465 C65.4269307,45.5369307 65.5843564,44.7735644 65.5863366,44.0745545 C65.5833663,43.5092079 65.4912871,42.9785149 65.2209901,42.4943564 C65.0843564,42.2527723 64.8942574,42.020099 64.629901,41.8418812 C64.369505,41.6646535 64.0328713,41.5587129 63.7031683,41.5606931 C63.2407921,41.5616832 62.8308911,41.7389109 62.4724752,41.9884158 C61.7120792,42.5250495 60.7110891,42.8834653 59.9120792,43.0844554 C59.5110891,43.1854455 59.1615842,43.2517822 58.9180198,43.290396 C58.7952475,43.310198 58.6992079,43.3240594 58.6348515,43.3309901 L58.5645545,43.339901 L58.5516832,43.3408911 L58.549703,43.3408911 C58.0071287,43.3933663 57.6081188,43.8745545 57.659604,44.4181188 C57.7130693,44.9606931 58.1932673,45.3587129 58.7378218,45.3072277" id="Fill-15" fill="#00757F"></path>
                        <path d="M68.5885149,62.4439604 L68.1528713,62.1122772 L68.5865347,62.4469307 L68.5885149,62.4439604 L68.1528713,62.1122772 L68.5865347,62.4469307 C68.5865347,62.4469307 68.6221782,62.3994059 68.700396,62.3093069 C68.9726733,61.9994059 69.7251485,61.2132673 70.959802,60.4637624 C72.1974257,59.7142574 73.9053465,58.9974257 76.130099,58.800396 C76.6726733,58.7528713 77.0756436,58.2736634 77.0271287,57.730099 C76.9805941,57.1865347 76.500396,56.7845545 75.9558416,56.8340594 C72.9825743,57.0934653 70.7528713,58.179604 69.2766337,59.2033663 C67.7974257,60.2291089 67.0607921,61.189505 67.0142574,61.249901 C66.6855446,61.6835644 66.7706931,62.3033663 67.2053465,62.6330693 C67.64,62.9637624 68.2588119,62.8776238 68.5885149,62.4439604" id="Fill-17" fill="#00757F"></path>
                        <path d="M45.039802,44.200099 C45.0081188,44.1971287 43.8982178,44.0456436 42.3219802,44.0456436 C41.4021782,44.0456436 40.3239604,44.0971287 39.2041584,44.2624752 C38.249703,44.4050495 37.2239604,44.5476238 36.1091089,44.5476238 C35.000198,44.5476238 33.8061386,44.4090099 32.4952475,43.9852475 C31.1853465,43.559505 29.7546535,42.8436634 28.1922772,41.6624752 C27.7566337,41.3337624 27.1378218,41.419901 26.8091089,41.8555446 C26.4794059,42.290198 26.5655446,42.9090099 27.0011881,43.239703 C28.7219802,44.539703 30.3566337,45.3674257 31.8863366,45.8634653 C33.4160396,46.359505 34.8348515,46.5238614 36.1091089,46.5238614 C37.3912871,46.5238614 38.529901,46.359505 39.4952475,46.2159406 C40.490297,46.0684158 41.4764356,46.0208911 42.3219802,46.0208911 C43.0467327,46.0208911 43.6665347,46.0555446 44.1031683,46.090198 C44.3190099,46.1080198 44.4922772,46.1238614 44.6071287,46.1377228 L44.7348515,46.1535644 L44.7665347,46.1565347 L44.7724752,46.1575248 C45.3120792,46.2317822 45.810099,45.8515842 45.8853465,45.3119802 C45.9576238,44.7713861 45.580396,44.2743564 45.039802,44.200099" id="Fill-19" fill="#00757F"></path>
                        <path d="M47.969505,72.5044554 C47.9665347,72.4668317 47.939802,71.310396 47.6427723,70.069802 C47.4883168,69.4480198 47.2774257,68.800495 46.8912871,68.2193069 C46.6972277,67.9311881 46.4516832,67.6549505 46.1229703,67.4381188 C45.7972277,67.2222772 45.3784158,67.0836634 44.9447525,67.0856436 L44.8724752,67.0866337 L44.8754455,67.0866337 C44.5714851,67.0965347 44.2724752,67.1678218 44.0091089,67.2925743 C43.5407921,67.5123762 43.2041584,67.8668317 42.9625743,68.2420792 C42.6021782,68.810396 42.4130693,69.4460396 42.2883168,70.0925743 C42.1675248,70.7391089 42.1219802,71.399505 42.1209901,72.000495 C42.1219802,72.3618812 42.1378218,72.7014851 42.1685149,73.0054455 C42.1982178,73.3113861 42.239802,73.5757426 42.3021782,73.820297 L42.3209901,73.8806931 C42.4120792,74.1539604 42.5724752,74.3816832 42.7546535,74.5529703 C43.0318812,74.8143564 43.3516832,74.9717822 43.6952475,75.0777228 C44.039802,75.1826733 44.4120792,75.2311881 44.8130693,75.2311881 C45.7605941,75.230198 46.8734653,74.9569307 48.0615842,74.3153465 C48.5417822,74.0559406 48.72,73.4569307 48.4615842,72.9777228 C48.2021782,72.4975248 47.6031683,72.3193069 47.1239604,72.5777228 C46.1893069,73.0836634 45.3714851,73.2579208 44.8130693,73.2559406 C44.4992079,73.2579208 44.2714851,73.1975248 44.170495,73.1519802 L44.12,73.1252475 L44.1140594,73.120297 L43.9160396,73.35 L44.1942574,73.2579208 C44.1655446,73.1688119 44.1180198,73.1242574 44.1140594,73.120297 L43.9160396,73.35 L44.1942574,73.2579208 L43.2576238,73.5688119 L44.2130693,73.3173267 C44.190297,73.2321782 44.1546535,73.0440594 44.1328713,72.8133663 C44.1120792,72.5816832 44.0962376,72.300495 44.0962376,72.000495 C44.0932673,71.2440594 44.1952475,70.3490099 44.4120792,69.7589109 C44.5170297,69.4628713 44.6477228,69.2529703 44.739802,69.1618812 L44.8457426,69.0806931 L44.9368317,69.0608911 L44.9388119,69.0608911 L44.9447525,69.0608911 L45.0427723,69.0925743 C45.1209901,69.1351485 45.3021782,69.3430693 45.4467327,69.6866337 C45.6754455,70.1985149 45.829901,70.9420792 45.9051485,71.5351485 C45.9437624,71.8331683 45.9675248,72.0955446 45.9794059,72.2787129 C45.9863366,72.3707921 45.990297,72.4430693 45.9932673,72.4915842 L45.9942574,72.5450495 L45.9952475,72.5579208 C46.010099,73.1024752 46.4635644,73.5331683 47.0081188,73.5183168 C47.5536634,73.5044554 47.9853465,73.05 47.969505,72.5044554" id="Fill-21" fill="#00757F"></path>
                        <path d="M44.4867327,69.2992079 C44.4887129,69.2813861 44.5015842,69.0873267 44.5015842,68.7833663 C44.4986139,68.2308911 44.4659406,67.329901 44.2164356,66.4279208 C44.0877228,65.9764356 43.9045545,65.5160396 43.5887129,65.0962376 C43.279802,64.6794059 42.789703,64.2992079 42.1768317,64.1764356 C42.010495,64.1427723 41.8461386,64.1259406 41.6827723,64.1259406 C41.1540594,64.1259406 40.6609901,64.2873267 40.2174257,64.5338614 C39.5550495,64.9081188 38.9867327,65.4853465 38.5669307,66.2031683 C38.1481188,66.9209901 37.879802,67.7893069 37.879802,68.7358416 C37.8788119,69.6338614 38.1283168,70.5972277 38.6906931,71.5180198 L38.7124752,71.5516832 C39.0956436,72.1249505 39.6213861,72.5190099 40.16,72.7744554 C40.7015842,73.0289109 41.2609901,73.1526733 41.799604,73.1536634 C42.1382178,73.1526733 42.4708911,73.1061386 42.8045545,72.9665347 C42.969901,72.8952475 43.1382178,72.7982178 43.2946535,72.6605941 C43.4491089,72.5209901 43.5906931,72.3358416 43.6817822,72.1180198 C43.889703,71.6150495 43.6530693,71.0368317 43.1491089,70.8269307 C42.6471287,70.6160396 42.0689109,70.8536634 41.8590099,71.3566337 L42.2877228,71.5368317 L41.9758416,71.1873267 L41.8590099,71.3566337 L42.2877228,71.5368317 L41.9758416,71.1873267 L42.1441584,71.3764356 L42.0293069,71.1506931 L41.9758416,71.1873267 L42.1441584,71.3764356 L42.0293069,71.1506931 L42.0411881,71.1764356 L42.030297,71.1487129 L42.0293069,71.1506931 L42.0411881,71.1764356 L42.030297,71.1487129 C42.0233663,71.1536634 41.9322772,71.1794059 41.799604,71.1784158 C41.5847525,71.180396 41.2738614,71.1170297 41.0015842,70.9873267 C40.7263366,70.8586139 40.4976238,70.6724752 40.3560396,70.4576238 L39.5332673,71.0041584 L40.3778218,70.4912871 C39.9966337,69.8615842 39.8560396,69.2774257 39.8550495,68.7358416 C39.8520792,67.9774257 40.1471287,67.2833663 40.5520792,66.7982178 C40.7530693,66.5566337 40.979802,66.3714851 41.1837624,66.2566337 C41.389703,66.1417822 41.5679208,66.1011881 41.6827723,66.1011881 L41.7758416,66.110099 C41.8550495,66.1318812 41.9035644,66.1526733 42.0144554,66.2893069 C42.1728713,66.4853465 42.3392079,66.9427723 42.4194059,67.4338614 C42.5055446,67.9269307 42.5263366,68.4457426 42.5263366,68.7833663 C42.5263366,68.9081188 42.5243564,69.0091089 42.5213861,69.0764356 L42.5174257,69.1516832 L42.5174257,69.1675248 L42.5174257,69.169505 C42.4817822,69.7140594 42.8926733,70.1843564 43.4372277,70.2209901 C43.9817822,70.2556436 44.4510891,69.8437624 44.4867327,69.2992079" id="Fill-23" fill="#00757F"></path>
                        <path d="M40.2111881,66.2167327 C40.2131683,66.1939604 40.2458416,65.8513861 40.2458416,65.3484158 C40.2418812,64.6781188 40.1983168,63.739505 39.8765347,62.8365347 C39.7121782,62.3850495 39.4735644,61.9266337 39.0646535,61.5464356 C38.6636634,61.1642574 38.0626733,60.909802 37.4309901,60.9177228 L37.2834653,60.9206931 C36.5963366,60.9563366 35.9963366,61.2751485 35.5448515,61.6890099 C34.8636634,62.3137624 34.4151485,63.1513861 34.0993069,64.0454455 C33.7894059,64.9414851 33.6210891,65.8979208 33.6191089,66.7929703 C33.620099,67.2672277 33.6666337,67.7226733 33.7824752,68.1573267 C33.900297,68.5890099 34.0854455,69.0088119 34.4230693,69.3662376 C34.7349505,69.6959406 35.1042574,69.9325743 35.479505,70.0741584 C35.8557426,70.2167327 36.2309901,70.270198 36.5775248,70.2692079 C37.2725743,70.2662376 37.8606931,70.0721782 38.2933663,69.8929703 C38.7240594,69.7117822 38.9973267,69.5365347 39.0329703,69.5137624 C39.4894059,69.2167327 39.6210891,68.6068317 39.3240594,68.1484158 C39.0290099,67.6909901 38.4171287,67.5583168 37.9587129,67.8543564 L38.2735644,68.3424752 L37.9626733,67.8523762 L37.9587129,67.8543564 L38.2735644,68.3424752 L37.9626733,67.8523762 L37.9319802,67.8711881 C37.8577228,67.9157426 37.6507921,68.0305941 37.3933663,68.1256436 C37.1369307,68.2226733 36.8319802,68.2959406 36.5775248,68.2939604 C36.4270297,68.2939604 36.2973267,68.2711881 36.1844554,68.2276238 C36.0686139,68.1840594 35.9666337,68.1226733 35.8527723,68.0028713 C35.8260396,67.980099 35.7448515,67.860297 35.6894059,67.6424752 C35.6309901,67.4286139 35.5943564,67.129604 35.5943564,66.7929703 C35.590396,65.939505 35.8339604,64.8454455 36.2309901,64.0553465 C36.4280198,63.6583168 36.659703,63.3414851 36.8705941,63.1523762 C37.0864356,62.960297 37.2448515,62.9028713 37.3874257,62.8939604 L37.3884158,62.8939604 L37.4309901,62.8929703 C37.6032673,62.899901 37.6329703,62.9246535 37.7250495,62.9989109 C37.7894059,63.0563366 37.8715842,63.1652475 37.9468317,63.3286139 C38.0616832,63.5711881 38.1527723,63.9256436 38.2032673,64.2939604 C38.2557426,64.6612871 38.2725743,65.040495 38.2705941,65.3484158 C38.2705941,65.5553465 38.2646535,65.729604 38.2577228,65.8494059 L38.249802,65.9870297 L38.2458416,66.0187129 L38.2458416,66.0236634 C38.1913861,66.5672277 38.5884158,67.050396 39.1309901,67.1038614 C39.6735644,67.1563366 40.1567327,66.760297 40.2111881,66.2167327" id="Fill-25" fill="#00757F"></path>
                        <path d="M23.730495,59.9415842 L23.7394059,59.9445545 C23.8493069,59.9881188 24.9958416,60.4425743 26.430495,61.2178218 C27.8641584,61.9920792 29.5849505,63.0930693 30.829505,64.3693069 L31.5354455,63.6782178 L30.809703,64.3485149 C32.4047525,66.0732673 33.9275248,66.7435644 34.0116832,66.7821782 C34.5116832,67 35.0928713,66.770297 35.3106931,66.270297 C35.5285149,65.770297 35.299802,65.1881188 34.799802,64.9712871 L34.7928713,64.9851485 L34.799802,64.9712871 L34.7928713,64.9851485 L34.799802,64.9712871 C34.7225743,64.9366337 33.5136634,64.3663366 32.260198,63.0089109 L32.2423762,62.9881188 C30.7176238,61.4356436 28.7839604,60.2376238 27.2205941,59.4019802 C25.6592079,58.5683168 24.4651485,58.1089109 24.440396,58.0980198 C23.930495,57.9019802 23.360198,58.1554455 23.1631683,58.6653465 C22.9671287,59.1742574 23.2205941,59.7445545 23.730495,59.9415842" id="Fill-27" fill="#00757F"></path>
                        <path d="M29.2978218,61.5872277 C29.2572277,61.6109901 28.7552475,61.8773267 28.209703,62.3644554 C27.9384158,62.6090099 27.6522772,62.9109901 27.4156436,63.2951485 C27.18,63.6733663 26.9889109,64.1545545 26.9889109,64.71 C26.9859406,65.1139604 27.0958416,65.5406931 27.3136634,65.929802 C27.4790099,66.2268317 27.7087129,66.4694059 27.9592079,66.6505941 C28.3354455,66.9248515 28.7483168,67.070396 29.1592079,67.159505 C29.570099,67.2476238 29.9869307,67.2773267 30.399802,67.2773267 C31.2522772,67.2763366 32.0879208,67.1476238 32.7285149,67.0218812 C33.3661386,66.8941584 33.8037624,66.7694059 33.8225743,66.7644554 C34.3483168,66.6129703 34.6493069,66.0654455 34.499802,65.5416832 C34.3483168,65.0179208 33.8017822,64.7149505 33.2770297,64.8674257 L33.2651485,64.8684158 C33.1918812,64.890198 32.7839604,65.000099 32.2374257,65.1050495 C31.6928713,65.2080198 31.0057426,65.3040594 30.399802,65.3030693 C29.9839604,65.3040594 29.6106931,65.2545545 29.3720792,65.1743564 C29.2522772,65.1347525 29.170099,65.0892079 29.1215842,65.0545545 L29.040396,64.9694059 C28.9750495,64.8476238 28.9651485,64.7793069 28.9631683,64.71 C28.9621782,64.6189109 28.9958416,64.4941584 29.0958416,64.3307921 C29.2413861,64.0882178 29.5354455,63.8080198 29.7938614,63.6189109 C29.9205941,63.5208911 30.0384158,63.4436634 30.119604,63.3941584 L30.2126733,63.3387129 L30.2314851,63.3278218 L30.2146535,63.2951485 L30.2314851,63.3278218 L30.2146535,63.2951485 L30.2314851,63.3278218 C30.7126733,63.070396 30.8918812,62.4713861 30.6354455,61.990198 C30.3770297,61.51 29.7770297,61.3288119 29.2978218,61.5872277" id="Fill-29" fill="#00757F"></path>
                        <path d="M81.7817822,59.3024752 C81.6877228,59.3163366 80.66,59.4608911 77.4827723,60.4747525 L77.7827723,61.4153465 L78.7649505,61.3113861 C78.710495,60.810396 78.569901,60.1707921 78.3639604,59.3569307 C77.6431683,56.5341584 76.1075248,51.769802 74.7461386,47.6816832 C73.3837624,43.5985149 72.1986139,40.2094059 72.1986139,40.2064356 L71.2669307,40.5321782 L71.7659406,41.3836634 L71.8778218,41.3183168 C72.3966337,41.0183168 74.6659406,39.7361386 76.4609901,39.0123762 C76.9659406,38.8084158 77.210495,38.2331683 77.0065347,37.7272277 C76.8015842,37.2212871 76.2263366,36.9767327 75.720396,37.1816832 C74.5847525,37.6420792 73.3580198,38.2618812 72.4035644,38.7707921 C71.450099,39.2787129 70.7738614,39.6757426 70.7669307,39.6806931 C70.3609901,39.9183168 70.179802,40.4133663 70.3342574,40.8569307 C70.3342574,40.8589109 70.430297,41.1321782 70.599604,41.6212871 C71.1926733,43.3331683 72.679802,47.6589109 74.0530693,51.8985149 C74.7411881,54.0183168 75.3986139,56.1173267 75.9005941,57.85 C76.1520792,58.7153465 76.3629703,59.489604 76.520396,60.1242574 C76.6758416,60.7559406 76.7738614,61.259901 76.8015842,61.5193069 C76.8322772,61.8143564 76.9946535,62.0806931 77.2421782,62.2420792 C77.4906931,62.4044554 77.8005941,62.4470297 78.0837624,62.3569307 C79.6382178,61.859901 80.6491089,61.5826733 81.2619802,61.430198 C81.5689109,61.3559406 81.7758416,61.310396 81.8986139,61.2876238 L82.0263366,61.2638614 L82.0471287,61.259901 L82.0005941,60.9579208 L82.0411881,61.2608911 L82.0471287,61.259901 L82.0005941,60.9579208 L82.0411881,61.2608911 C82.5817822,61.1886139 82.9619802,60.6925743 82.889703,60.1519802 C82.8184158,59.6113861 82.3223762,59.2311881 81.7817822,59.3024752" id="Fill-31" fill="#00757F"></path>
                        <path d="M84.9541584,62.5367327 C84.9531683,62.5337624 83.199703,56.5783168 81.2006931,50.1545545 C80.2016832,46.9416832 79.1422772,43.6119802 78.2086139,40.8456436 C77.7422772,39.4634653 77.3066337,38.219901 76.9244554,37.1991089 C76.5393069,36.1743564 76.2165347,35.3842574 75.9363366,34.8436634 L75.0610891,35.300099 L75.440297,36.2119802 C78.109604,35.0991089 85.0393069,32.1684158 85.040297,32.1674257 C85.5432673,31.9555446 85.7779208,31.3753465 85.5650495,30.8743564 C85.3521782,30.3713861 84.7739604,30.1357426 84.2719802,30.349604 C84.2709901,30.349604 83.8373267,30.5317822 83.1472277,30.8248515 C81.0729703,31.700099 76.6729703,33.5565347 74.679901,34.3882178 C74.4264356,34.4951485 74.2244554,34.7050495 74.1313861,34.9634653 C74.0383168,35.2228713 74.0571287,35.5139604 74.1838614,35.7565347 C74.3858416,36.1426733 74.7056436,36.9060396 75.0739604,37.8921782 C76.3759406,41.3634653 78.3789109,47.6832673 80.0482178,53.1109901 C80.8828713,55.8268317 81.6363366,58.3228713 82.1808911,60.1406931 C82.4521782,61.049604 82.6709901,61.7882178 82.8234653,62.3010891 C82.9749505,62.8109901 83.0591089,63.0941584 83.0591089,63.0941584 C83.2125743,63.6189109 83.7620792,63.9179208 84.2848515,63.7624752 C84.809604,63.6090099 85.1076238,63.059505 84.9541584,62.5367327" id="Fill-33" fill="#00757F"></path>
                        <path d="M18.4377228,64.5778218 L22.2783168,65.6758416 C22.539703,65.750099 22.8238614,65.7124752 23.0565347,65.5738614 C23.2882178,65.4332673 23.4555446,65.2005941 23.5139604,64.9352475 L28.8911881,40.1362376 C29.0050495,39.6114851 28.680297,39.0936634 28.1585149,38.9669307 L24.0991089,37.979802 C23.5694059,37.850099 23.0367327,38.1748515 22.9060396,38.7065347 C22.7773267,39.2352475 23.1030693,39.769901 23.6317822,39.8986139 L26.7565347,40.6590099 L21.8070297,63.4857426 L18.980297,62.679802 C18.4555446,62.5283168 17.9090099,62.8322772 17.7575248,63.3570297 C17.6090099,63.8817822 17.9129703,64.4293069 18.4377228,64.5778218" id="Fill-35" fill="#00757F"></path>
                        <path d="M18.3545545,65.270198 L25.049604,35.3147525 C25.1654455,34.7969307 24.8515842,34.2820792 24.339703,34.1454455 L17.7565347,32.3890099 C17.2278218,32.2484158 16.6872277,32.5612871 16.5476238,33.0890099 C16.4060396,33.6157426 16.719901,34.1563366 17.2466337,34.2979208 L22.9139604,35.8088119 L16.4278218,64.8385149 C16.31,65.3731683 16.6426733,65.9008911 17.1763366,66.0187129 C17.7090099,66.1385149 18.2367327,65.8028713 18.3545545,65.270198" id="Fill-37" fill="#00757F"></path>
                    </g>
                </g>
            </g>
        </g>
    </g>
</svg>