<?xml version="1.0" encoding="UTF-8"?>
<svg width="130px" height="130px" viewBox="0 0 130 130" version="1.1" xmlns="http://www.w3.org/2000/svg" xmlns:xlink="http://www.w3.org/1999/xlink">
    <!-- Generator: Sketch 52.5 (67469) - http://www.bohemiancoding.com/sketch -->
    <title>commercial conveyancing icon</title>
    <desc>Created with Sketch.</desc>
    <defs>
        <filter x="-6.7%" y="-12.1%" width="113.4%" height="124.3%" filterUnits="objectBoundingBox" id="filter-1">
            <feOffset dx="0" dy="0" in="SourceAlpha" result="shadowOffsetOuter1"></feOffset>
            <feGaussianBlur stdDeviation="7.5" in="shadowOffsetOuter1" result="shadowBlurOuter1"></feGaussianBlur>
            <feColorMatrix values="0 0 0 0 0   0 0 0 0 0   0 0 0 0 0  0 0 0 0.0995244565 0" type="matrix" in="shadowBlurOuter1" result="shadowMatrixOuter1"></feColorMatrix>
            <feMerge>
                <feMergeNode in="shadowMatrixOuter1"></feMergeNode>
                <feMergeNode in="SourceGraphic"></feMergeNode>
            </feMerge>
        </filter>
    </defs>
    <g id="Desktop" stroke="none" stroke-width="1" fill="none" fill-rule="evenodd">
        <g id="Hennings-Category-page" transform="translate(-734.000000, -639.000000)">
            <g id="Services" transform="translate(100.000000, 612.000000)">
                <g id="COMMERCIAL" filter="url(#filter-1)" transform="translate(480.000000, 0.000000)">
                    <g id="commercial-conveyancing-icon" transform="translate(169.000000, 42.000000)">
                        <path d="M99.5047525,49.999802 C99.5047525,77.340396 77.340396,99.5047525 49.999802,99.5047525 C22.6592079,99.5047525 0.494851485,77.340396 0.494851485,49.999802 C0.494851485,22.6592079 22.6592079,0.494851485 49.999802,0.494851485 C77.340396,0.494851485 99.5047525,22.6592079 99.5047525,49.999802 Z" id="Stroke-1" stroke="#99C8CC"></path>
                        <path d="M74.9592079,70.359703 L25.5908911,70.359703 L25.5908911,50.2923762 C25.5908911,49.820099 25.9750495,49.4369307 26.4473267,49.4369307 C26.9205941,49.4369307 27.3037624,49.820099 27.3037624,50.2923762 L27.3037624,68.6478218 L73.2463366,68.6478218 L73.2463366,50.2616832 C73.2463366,49.7884158 73.630495,49.4042574 74.1027723,49.4042574 C74.5760396,49.4042574 74.9592079,49.7884158 74.9592079,50.2616832 L74.9592079,70.359703 Z" id="Fill-3" fill="#00757F"></path>
                        <path d="M47.0856436,70.3606931 L32.5282178,70.3606931 L32.5282178,49.5973267 C32.5282178,49.1240594 32.9123762,48.7418812 33.3846535,48.7418812 C33.8589109,48.7418812 34.2410891,49.1240594 34.2410891,49.5973267 L34.2410891,68.6478218 L45.3727723,68.6478218 L45.3727723,50.2082178 C45.3727723,49.7349505 45.7569307,49.3517822 46.2292079,49.3517822 C46.7024752,49.3517822 47.0856436,49.7349505 47.0856436,50.2082178 L47.0856436,70.3606931 Z" id="Fill-5" fill="#00757F"></path>
                        <path d="M41.050297,48.6920792 L40.170099,48.6920792 C39.6968317,48.6920792 39.3136634,48.3089109 39.3136634,47.8356436 C39.3136634,47.3633663 39.6968317,46.9792079 40.170099,46.9792079 L41.050297,46.9792079 C41.5235644,46.9792079 41.9067327,47.3633663 41.9067327,47.8356436 C41.9067327,48.3089109 41.5235644,48.6920792 41.050297,48.6920792" id="Fill-7" fill="#00757F"></path>
                        <path d="M55.669703,57.7629703 C55.4419802,57.7629703 55.2132673,57.6708911 55.0439604,57.4906931 C54.7211881,57.1451485 54.74,56.6025743 55.0855446,56.279802 L62.3083168,49.5322772 C62.6548515,49.2114851 63.1954455,49.2283168 63.5192079,49.5738614 C63.8419802,49.920396 63.8241584,50.4619802 63.4776238,50.7847525 L56.2548515,57.5322772 C56.089505,57.6857426 55.879604,57.7629703 55.669703,57.7629703" id="Fill-9" fill="#00757F"></path>
                        <path d="M55.8771287,65.4014851 C55.6583168,65.4014851 55.439505,65.3183168 55.2721782,65.1509901 C54.9375248,64.8163366 54.9375248,64.2747525 55.2721782,63.940099 L64.6147525,54.5975248 C64.9494059,54.2628713 65.4909901,54.2628713 65.8256436,54.5975248 C66.160297,54.9321782 66.160297,55.4737624 65.8256436,55.8094059 L56.4830693,65.1509901 C56.3157426,65.3183168 56.0959406,65.4014851 55.8771287,65.4014851" id="Fill-11" fill="#00757F"></path>
                        <path d="M41.050297,48.6920792 L40.170099,48.6920792 C39.6968317,48.6920792 39.3136634,48.3089109 39.3136634,47.8356436 C39.3136634,47.3633663 39.6968317,46.9792079 40.170099,46.9792079 L41.050297,46.9792079 C41.5235644,46.9792079 41.9067327,47.3633663 41.9067327,47.8356436 C41.9067327,48.3089109 41.5235644,48.6920792 41.050297,48.6920792" id="Fill-13" fill="#00757F"></path>
                        <path d="M36.4681188,61.9621782 C35.9958416,61.9621782 35.6116832,61.5790099 35.6116832,61.1067327 L35.6116832,56.7235644 C35.6116832,56.250297 35.9958416,55.8671287 36.4681188,55.8671287 C36.9423762,55.8671287 37.3255446,56.250297 37.3255446,56.7235644 L37.3255446,61.1067327 C37.3255446,61.5790099 36.9423762,61.9621782 36.4681188,61.9621782" id="Fill-15" fill="#00757F"></path>
                        <path d="M78.2326733,46.7447525 C77.9029703,46.7447525 77.5881188,46.5536634 77.4475248,46.2318812 L69.919802,29.0714851 L30.6485149,29.0714851 L22.6405941,46.249703 C22.439604,46.6794059 21.9316832,46.8645545 21.5019802,46.6635644 C21.0732673,46.4645545 20.8881188,45.9556436 21.0881188,45.5269307 L29.5574257,27.3586139 L71.0386139,27.3586139 L79.0158416,45.5447525 C79.2059406,45.9774257 79.0089109,46.4823762 78.5762376,46.6724752 C78.4643564,46.7219802 78.3475248,46.7447525 78.2326733,46.7447525" id="Fill-17" fill="#00757F"></path>
                        <path d="M31.3044554,46.7447525 C31.2480198,46.7447525 31.1905941,46.739802 31.1331683,46.7279208 C30.669802,46.6338614 30.3707921,46.1813861 30.4638614,45.7180198 L34.0608911,28.0447525 C34.1549505,27.5813861 34.6084158,27.2823762 35.0707921,27.3764356 C35.5341584,27.470495 35.8331683,27.9229703 35.7391089,28.3863366 L32.1430693,46.059604 C32.059901,46.4655446 31.7034653,46.7447525 31.3044554,46.7447525" id="Fill-19" fill="#00757F"></path>
                        <path d="M68.7928713,46.7447525 C68.3958416,46.7447525 68.0384158,46.4675248 67.9552475,46.0635644 L64.28,28.390297 C64.1839604,27.9269307 64.4809901,27.4734653 64.9443564,27.3764356 C65.4067327,27.2784158 65.860198,27.5774257 65.9572277,28.0407921 L69.6314851,45.7140594 C69.7285149,46.1774257 69.4314851,46.6308911 68.9681188,46.7269307 C68.909703,46.739802 68.8512871,46.7447525 68.7928713,46.7447525" id="Fill-21" fill="#00757F"></path>
                        <path d="M59.3535644,46.7447525 C58.9189109,46.7447525 58.5476238,46.4160396 58.5020792,45.9744554 L56.7109901,28.3021782 C56.6634653,27.8308911 57.0060396,27.4110891 57.4773267,27.3625743 C57.9476238,27.3190099 58.3674257,27.6586139 58.4159406,28.129901 L60.2070297,45.8021782 C60.2545545,46.2724752 59.9109901,46.6932673 59.4406931,46.7407921 C59.4109901,46.7447525 59.3822772,46.7447525 59.3535644,46.7447525" id="Fill-23" fill="#00757F"></path>
                        <path d="M50.0036634,46.7447525 C49.530396,46.7447525 49.1472277,46.3615842 49.1472277,45.8883168 L49.1531683,28.2150495 C49.1531683,27.7427723 49.5363366,27.3586139 50.0086139,27.3586139 L50.009604,27.3586139 C50.4828713,27.3586139 50.8660396,27.7427723 50.8660396,28.2160396 L50.8610891,45.8893069 C50.8610891,46.3625743 50.4779208,46.7447525 50.0036634,46.7447525" id="Fill-25" fill="#00757F"></path>
                        <path d="M40.6547525,46.7447525 C40.6260396,46.7447525 40.5963366,46.7447525 40.5666337,46.7407921 C40.0963366,46.6922772 39.7537624,46.2724752 39.8012871,45.8011881 L41.6032673,28.1289109 C41.649802,27.6586139 42.0626733,27.3081188 42.5418812,27.3635644 C43.0121782,27.4120792 43.3537624,27.8308911 43.3062376,28.3031683 L41.5062376,45.9754455 C41.4606931,46.4160396 41.0884158,46.7447525 40.6547525,46.7447525" id="Fill-27" fill="#00757F"></path>
                        <path d="M54.6346535,51.1532673 C51.5574257,51.1532673 49.1475248,48.8413861 49.1475248,45.8889109 C49.1475248,45.4156436 49.5306931,45.0324752 50.0039604,45.0324752 C50.4772277,45.0324752 50.860396,45.4156436 50.860396,45.8889109 C50.860396,47.88 52.5188119,49.4413861 54.6346535,49.4413861 C56.7653465,49.4413861 58.4980198,47.8473267 58.4980198,45.8889109 C58.4980198,45.4156436 58.8821782,45.0324752 59.3544554,45.0324752 C59.8277228,45.0324752 60.2108911,45.4156436 60.2108911,45.8889109 C60.2108911,48.7908911 57.7089109,51.1532673 54.6346535,51.1532673" id="Fill-29" fill="#00757F"></path>
                        <path d="M45.2842574,51.1532673 C42.2080198,51.1532673 39.7971287,48.8413861 39.7971287,45.8889109 C39.7971287,45.4156436 40.180297,45.0324752 40.6535644,45.0324752 C41.1268317,45.0324752 41.51,45.4156436 41.51,45.8889109 C41.51,47.88 43.1684158,49.4413861 45.2842574,49.4413861 C47.4149505,49.4413861 49.1476238,47.8473267 49.1476238,45.8889109 C49.1476238,45.4156436 49.5307921,45.0324752 50.0040594,45.0324752 C50.4773267,45.0324752 50.860495,45.4156436 50.860495,45.8889109 C50.860495,48.7908911 48.359505,51.1532673 45.2842574,51.1532673" id="Fill-31" fill="#00757F"></path>
                        <path d="M35.9344554,51.1532673 C32.8572277,51.1532673 30.4473267,48.8413861 30.4473267,45.8889109 C30.4473267,45.4156436 30.8314851,45.0324752 31.3037624,45.0324752 C31.7770297,45.0324752 32.160198,45.4156436 32.160198,45.8889109 C32.160198,47.88 33.8176238,49.4413861 35.9344554,49.4413861 C38.0641584,49.4413861 39.7968317,47.8473267 39.7968317,45.8889109 C39.7968317,45.4156436 40.1809901,45.0324752 40.6532673,45.0324752 C41.1275248,45.0324752 41.509703,45.4156436 41.509703,45.8889109 C41.509703,48.7908911 39.0087129,51.1532673 35.9344554,51.1532673" id="Fill-33" fill="#00757F"></path>
                        <path d="M26.5845545,51.1532673 C23.510297,51.1532673 21.0083168,48.7908911 21.0083168,45.8889109 C21.0083168,45.4156436 21.3914851,45.0324752 21.8647525,45.0324752 C22.3380198,45.0324752 22.7211881,45.4156436 22.7211881,45.8889109 C22.7211881,47.8473267 24.4538614,49.4413861 26.5845545,49.4413861 C28.7142574,49.4413861 30.4469307,47.8473267 30.4469307,45.8889109 C30.4469307,45.4156436 30.8310891,45.0324752 31.3043564,45.0324752 C31.7766337,45.0324752 32.159802,45.4156436 32.159802,45.8889109 C32.159802,48.7908911 29.6588119,51.1532673 26.5845545,51.1532673" id="Fill-35" fill="#00757F"></path>
                        <path d="M64.0743564,51.1532673 C63.6040594,51.1532673 63.1406931,51.0988119 62.6931683,50.9918812 C60.2218812,50.3958416 58.4971287,48.2988119 58.4971287,45.8889109 C58.4971287,45.4156436 58.880297,45.0324752 59.3535644,45.0324752 C59.8258416,45.0324752 60.21,45.4156436 60.21,45.8889109 C60.21,47.5037624 61.3961386,48.9176238 63.0931683,49.3265347 C63.41,49.4017822 63.739703,49.440396 64.0743564,49.440396 C66.2040594,49.440396 67.9377228,47.8473267 67.9377228,45.8889109 C67.9377228,45.4156436 68.3208911,45.0324752 68.7941584,45.0324752 C69.2664356,45.0324752 69.649604,45.4156436 69.649604,45.8889109 C69.649604,48.7908911 67.1486139,51.1532673 64.0743564,51.1532673" id="Fill-37" fill="#00757F"></path>
                        <path d="M73.5122772,51.1532673 C70.4380198,51.1532673 67.9370297,48.7908911 67.9370297,45.8889109 C67.9370297,45.4156436 68.320198,45.0324752 68.7924752,45.0324752 C69.2657426,45.0324752 69.649901,45.4156436 69.649901,45.8889109 C69.649901,47.8473267 71.3825743,49.4413861 73.5122772,49.4413861 C75.6429703,49.4413861 77.3756436,47.8473267 77.3756436,45.8889109 C77.3756436,45.4156436 77.7588119,45.0324752 78.2320792,45.0324752 C78.7043564,45.0324752 79.0885149,45.4156436 79.0885149,45.8889109 C79.0885149,48.7908911 76.5865347,51.1532673 73.5122772,51.1532673" id="Fill-39" fill="#00757F"></path>
                    </g>
                </g>
            </g>
        </g>
    </g>
</svg>