<svg id="Layer_1" data-name="Layer 1" xmlns="http://www.w3.org/2000/svg" viewBox="0 0 340.16 141.73"><defs><style>.cls-1{fill:#aedce6;}.cls-2{fill:#9fcbe7;}.cls-2,.cls-3,.cls-4,.cls-5,.cls-6,.cls-7,.cls-8{fill-rule:evenodd;}.cls-3{fill:#5bb5e4;}.cls-4{fill:#22a2dd;}.cls-5{fill:#038cc9;}.cls-6{fill:#007f9c;}.cls-7{fill:#0096ab;}.cls-8,.cls-9{fill:#62c0bf;}</style></defs><title>HS_Logo</title><path class="cls-1" d="M28.35,27.34H39.28V66.41H35.94V72h3.34V114.2a13.15,13.15,0,0,1-10.93-13Z"/><rect class="cls-1" x="44.84" y="27.34" width="15.22" height="39.07"/><rect class="cls-1" x="44.84" y="71.98" width="15.22" height="42.41"/><path class="cls-1" d="M121.1,40.49v60.75A13.15,13.15,0,0,1,108,114.39H68.22v-87H108A13.15,13.15,0,0,1,121.1,40.49Z"/><path class="cls-2" d="M87.76,101.7a3.46,3.46,0,0,0,.37,2,3.3,3.3,0,0,0,3.08,1.88,3.25,3.25,0,0,0,3.27-3.49,1.88,1.88,0,0,0-1.8-1.89,1.69,1.69,0,0,0-1.4.48,1.24,1.24,0,0,0-.34,1.27.8.8,0,0,0,1.51.14c.19-.57.15-.57-.28-.63-.78-.11-.18-.73.13-.81.93-.23,1.54.64,1.57,1.5.12,3.11-5.55,3.48-5.21-.87a4.19,4.19,0,0,1,4-3.53,4.58,4.58,0,0,1,3.82,2.1,6.06,6.06,0,0,1,.31,5.14c-.64,0-1,2.73-1.94,2.73a6.5,6.5,0,0,1-2.34,1.16v.4c-3.43.5-6.23-.17-8.58-3.51,0-1.84-1.17-2-1.17-3.89l0-.22Z"/><path class="cls-3" d="M99,90c-.84.8-1.85,1.7-3.07,2.72a52.67,52.67,0,0,0-5.07,3.81c-.43.43-.83.85-1.16,1.24H83.21c.55-1.53,1.9-3.85,2.81-4.38.47-.29.72-1.14,1.44-1.56A3.93,3.93,0,0,0,89.23,90Z"/><path class="cls-4" d="M94.05,83.43l.5-1.63-3.49,3.3C86.87,87,88.69,82.63,87,81.17a4.09,4.09,0,0,1-1.09-2.78h21.66C107,79.86,106.42,81,106,81.16s-1.44,2.76-1.76,3.14c-.62.25-.94.79-1.75,1.86H92.17Z"/><path class="cls-5" d="M86.82,74.5c.43-1.66-.53-3.36,2.15-3.36.8,0,2.62,1.33,3.29.9.4-.25-1.68-1.42-2.06-1.68,0-1.18-.14-2.2-1.17-2.72l-.79.39a4.42,4.42,0,0,1-.68-1.29h21.51a18.6,18.6,0,0,1,.62,3.62,36.51,36.51,0,0,1-.91,4.14Z"/><path class="cls-6" d="M83.83,62.85c-.52-2-2.45-3.59-3-4.17-.36,0-.86.18-1,.15-.66-.1.45-.62-.43-1.42a5.29,5.29,0,0,1-1.27-2.33h22.35l-.11.09c-.73.64,4,1.68,5.59,2.85-.94,1.92,2.2,3,3.36,4.83Z"/><path class="cls-7" d="M76.53,51.2c0-3.76,1.06-5.63,1.19-5.76-1.6-.1-.93,0-.84-.67a8.43,8.43,0,0,1,.31-1.34h27.75a3.05,3.05,0,0,0,1.32,1.92c.33.08.4.41,0,.63-.88.57-2.08,1,2.78,5.92.71.71,2.68.68,2.82,1.17.26.89-.85,1-2.17,2.42-.18.2-.73,0-1-.13-.74-.36-2-2.29-3.79-2.89a23.22,23.22,0,0,1-5.82-2.24,2.3,2.3,0,0,0-1.3-.28c-3.57.14-3.54-.1-7.88-2.08-.35,1.05,1.69,2.43,3.18,3.33Z"/><path class="cls-8" d="M79.9,39.54a2.07,2.07,0,0,1,.94-.34c-.55-.18-1.18-.52-1.18-1.16,3.57-.93,5.73-3.65,9.37-2.34-.21-.84-1.27-1.39-1-1.56.75-.19,1.54-.48,3.32.64s2-.52,2-3c3.56,0,4.55,5.61,5.92,1.95,2.79,1.61,2.22,6.6,4.56,5.48.15,0,.26.09.34.34Z"/><rect class="cls-9" x="141" y="71.22" width="170.81" height="0.5"/><path class="cls-9" d="M145.65,64.35h-3V41h3v7.79a1.29,1.29,0,0,0,.23.85,1.36,1.36,0,0,0,1,.26h8.28a2.19,2.19,0,0,0,1.2-.2c.16-.13.23-.41.23-.84V41h3V64.35h-3V53.47a2.52,2.52,0,0,0-.06-.6c-.05-.16-.25-.24-.62-.24h-9.45c-.36,0-.59.06-.68.19a1.35,1.35,0,0,0-.13.75V64.35Z"/><path class="cls-9" d="M178.67,64.35H167.73V41h10.71V43.6h-6.36a2.76,2.76,0,0,0-1.07.1c-.15.11-.23.47-.23,1.07v4.06c0,.45.07.74.21.86a1.65,1.65,0,0,0,1,.18H178v3.05h-6.2c-.46,0-.74.1-.86.29a2.14,2.14,0,0,0-.18,1v6a2.14,2.14,0,0,0,.1.91c.11.13.4.19.87.19h6.92Z"/><path class="cls-9" d="M189.16,64.35H186.1l0-23.28,12.12,13.59.9.86a.88.88,0,0,0,.55.22.31.31,0,0,0,.29-.19,3.91,3.91,0,0,0,.11-.73,9.15,9.15,0,0,0,0-1V41h3V64.54L191,50.61c-.18-.19-.36-.4-.54-.61a.79.79,0,0,0-.6-.33.59.59,0,0,0-.51.26,1.9,1.9,0,0,0-.17,1V64.35Z"/><path class="cls-9" d="M214.35,64.35h-3l0-23.28,12.12,13.59.9.86a.9.9,0,0,0,.55.22.3.3,0,0,0,.29-.19,3,3,0,0,0,.12-.73c0-.36.05-.7.05-1V41h3V64.54L216.17,50.61l-.54-.61a.77.77,0,0,0-.6-.33.59.59,0,0,0-.5.26,1.88,1.88,0,0,0-.18,1V64.35Z"/><path class="cls-9" d="M239.54,64.35h-3V41h3Z"/><path class="cls-9" d="M250.71,64.35h-3.05l0-23.28,12.12,13.59.9.86a.93.93,0,0,0,.55.22.32.32,0,0,0,.3-.19,3.91,3.91,0,0,0,.11-.73c0-.36.05-.7.05-1V41h3V64.54L252.53,50.61,252,50a.8.8,0,0,0-.6-.33.59.59,0,0,0-.51.26,1.88,1.88,0,0,0-.18,1V64.35Z"/><path class="cls-9" d="M284.45,40.61a12.42,12.42,0,0,1,1.75.13,7.6,7.6,0,0,1,1.66.46V44c-.76-.23-1.3-.4-1.63-.48a7.52,7.52,0,0,0-1.75-.23,8.81,8.81,0,0,0-6.61,2.74,9.36,9.36,0,0,0-2.64,6.74A9.7,9.7,0,0,0,276.72,58a7.7,7.7,0,0,0,4,3.35c.71.24,1.47.45,2.27.65a9.2,9.2,0,0,0,2.08.29,2.47,2.47,0,0,0,1.64-.47,2,2,0,0,0,.53-1.58v-7h3.05V63a7,7,0,0,1-2.61,1.33,11.33,11.33,0,0,1-3.13.45A12.19,12.19,0,0,1,272.4,52.63a11.55,11.55,0,0,1,3.52-8.52A11.67,11.67,0,0,1,284.45,40.61Z"/><path class="cls-9" d="M297.53,59.06l2.63-1.17a5.06,5.06,0,0,0,1.53,2.72,3.86,3.86,0,0,0,2.73,1.14,3.9,3.9,0,0,0,2.95-1.27,4.23,4.23,0,0,0,1.2-3,4.54,4.54,0,0,0-.39-2,6,6,0,0,0-2.76-2.35,31.9,31.9,0,0,0-3.5-1.39,5,5,0,0,1-3.58-5,6.51,6.51,0,0,1,1.59-4.43,5.31,5.31,0,0,1,4.19-1.82,5.59,5.59,0,0,1,3.23,1,5.46,5.46,0,0,1,2.07,2.66L307,45.23a3.49,3.49,0,0,0-1-1.46,2.56,2.56,0,0,0-1.66-.62,3.34,3.34,0,0,0-2.31.92,2.92,2.92,0,0,0-1,2.23A3,3,0,0,0,302.89,49c1.58.63,2.67,1.08,3.28,1.34a10.68,10.68,0,0,1,3.73,2.56,6.18,6.18,0,0,1,1.5,4.2c0,.22,0,.41,0,.58s-.06.54-.15,1.08a6.91,6.91,0,0,1-2.33,4.13,6.5,6.5,0,0,1-4.42,1.72,6.79,6.79,0,0,1-4-1.27,7.07,7.07,0,0,1-2.63-3.31,4.62,4.62,0,0,1-.33-1Z"/><path class="cls-9" d="M141.62,93.21l2.25-1a4.43,4.43,0,0,0,1.31,2.34,3.38,3.38,0,0,0,4.87-.11,3.63,3.63,0,0,0,1-2.59,3.93,3.93,0,0,0-.33-1.7,5.1,5.1,0,0,0-2.37-2,25.72,25.72,0,0,0-3-1.2,4.24,4.24,0,0,1-3.06-4.32,5.56,5.56,0,0,1,1.36-3.79,4.53,4.53,0,0,1,3.59-1.56,4.78,4.78,0,0,1,2.77.86,4.69,4.69,0,0,1,1.76,2.28l-2.05.95a3,3,0,0,0-.87-1.24,2.14,2.14,0,0,0-1.42-.54,2.85,2.85,0,0,0-2,.79,2.5,2.5,0,0,0-.87,1.91,2.62,2.62,0,0,0,1.59,2.35c1.36.53,2.29.91,2.81,1.14a9.1,9.1,0,0,1,3.2,2.2,5.26,5.26,0,0,1,1.28,3.6c0,.18,0,.35,0,.5s-.05.45-.13.92a5.91,5.91,0,0,1-2,3.54A5.58,5.58,0,0,1,147.57,98a5.88,5.88,0,0,1-3.42-1.08,6.15,6.15,0,0,1-2.25-2.84c-.06-.13-.11-.26-.16-.39S141.66,93.39,141.62,93.21Z"/><path class="cls-9" d="M159.09,87.65a10.29,10.29,0,0,1,2.92-7.3,9.66,9.66,0,0,1,14.22.06,10.9,10.9,0,0,1,0,14.71,9.67,9.67,0,0,1-14.23,0A10.6,10.6,0,0,1,159.09,87.65Zm2.34.09c0,.33,0,.58,0,.75a1.74,1.74,0,0,1,.09.45,8.77,8.77,0,0,0,2.56,5,7,7,0,0,0,5,2,7.17,7.17,0,0,0,5.51-2.44,8.59,8.59,0,0,0,0-11.47,7.44,7.44,0,0,0-10.1-.92,7.52,7.52,0,0,0-2,2.37,9.19,9.19,0,0,0-1,3.1q-.06.3-.09.57C161.44,87.32,161.43,87.52,161.43,87.74Z"/><path class="cls-9" d="M195.07,97.74h-9.38v-20h2.61V94.15a2,2,0,0,0,.14.74.51.51,0,0,0,.5.35h6.13Z"/><path class="cls-9" d="M202.91,97.74h-2.62v-20h2.62Z"/><path class="cls-9" d="M223,77.85v2.58a7.53,7.53,0,0,0-3.39-.78,7.17,7.17,0,0,0-5.44,2.41,8,8,0,0,0-2.24,5.62,7.9,7.9,0,0,0,2.23,5.64,7.21,7.21,0,0,0,5.48,2.36,7.34,7.34,0,0,0,1.75-.2,6.67,6.67,0,0,0,1.59-.58v2.49a8.61,8.61,0,0,1-3.34.66A9.44,9.44,0,0,1,212.42,95a10.41,10.41,0,0,1-2.9-7.39,10.92,10.92,0,0,1,.28-2.4,8.4,8.4,0,0,1,.86-2.24,10.6,10.6,0,0,1,3.69-4.13,9.6,9.6,0,0,1,5.25-1.46H220A8.54,8.54,0,0,1,223,77.85Z"/><path class="cls-9" d="M232,97.74h-2.61v-20H232Z"/><path class="cls-9" d="M237.42,80.21v-2.5h12.64v2.5H245.8c-.35,0-.57.07-.64.21a2,2,0,0,0-.11.85V97.74h-2.62V81.3a1.69,1.69,0,0,0-.15-.88c-.1-.14-.38-.21-.82-.21Z"/><path class="cls-9" d="M255.09,87.65a10.29,10.29,0,0,1,2.92-7.3,9.66,9.66,0,0,1,14.22.06,10.9,10.9,0,0,1,0,14.71,9.67,9.67,0,0,1-14.23,0A10.6,10.6,0,0,1,255.09,87.65Zm2.33.09a6.94,6.94,0,0,0,0,.75,1.74,1.74,0,0,1,.09.45,8.71,8.71,0,0,0,2.56,5,7,7,0,0,0,5,2,7.14,7.14,0,0,0,5.51-2.44A8.58,8.58,0,0,0,270.7,82a7.43,7.43,0,0,0-10.1-.92,7.39,7.39,0,0,0-2.05,2.37,9,9,0,0,0-1,3.1q-.06.3-.09.57A5.47,5.47,0,0,0,257.42,87.74Z"/><path class="cls-9" d="M284.27,97.74h-2.59V84a6.59,6.59,0,0,1,1.73-4.69A5.92,5.92,0,0,1,288,77.43a5.5,5.5,0,0,1,4.22,1.85,6.23,6.23,0,0,1,1.71,4.38,6.14,6.14,0,0,1-.42,2.27,4.71,4.71,0,0,1-1.28,1.85,8.55,8.55,0,0,1-1,.81,4.71,4.71,0,0,1-1.05.53l-.68.23a3.76,3.76,0,0,1-.63.18c-.05,0-.1.07-.13.2a1,1,0,0,1,0,.19,36.22,36.22,0,0,0,2.45,3.65q2,2.84,3,4.17h-2.67l-5.81-7.82c-.13-.16-.26-.34-.39-.53s-.39-.36-.56-.36-.3.15-.35.43a5.72,5.72,0,0,0-.07.66v7.62Zm0-14a3.62,3.62,0,0,0,1.07,2.64A3.52,3.52,0,0,0,288,87.42a3.16,3.16,0,0,0,2.53-1.13,4.11,4.11,0,0,0,.95-2.74,3.62,3.62,0,0,0-1-2.6,3.31,3.31,0,0,0-2.51-1.07A3.39,3.39,0,0,0,285.3,81,3.81,3.81,0,0,0,284.27,83.69Z"/><path class="cls-9" d="M299.57,93.21l2.26-1a4.35,4.35,0,0,0,1.3,2.34,3.38,3.38,0,0,0,4.87-.11,3.63,3.63,0,0,0,1-2.59,3.93,3.93,0,0,0-.33-1.7,5.1,5.1,0,0,0-2.37-2,25,25,0,0,0-3-1.2,4.24,4.24,0,0,1-3.06-4.32,5.56,5.56,0,0,1,1.36-3.79,4.54,4.54,0,0,1,3.59-1.56,4.76,4.76,0,0,1,2.77.86,4.65,4.65,0,0,1,1.77,2.28l-2.06.95a2.93,2.93,0,0,0-.86-1.24,2.16,2.16,0,0,0-1.42-.54,2.88,2.88,0,0,0-2,.79,2.53,2.53,0,0,0-.86,1.91,2.63,2.63,0,0,0,1.58,2.35c1.36.53,2.3.91,2.81,1.14a9.1,9.1,0,0,1,3.2,2.2,5.27,5.27,0,0,1,1.29,3.6c0,.18,0,.35,0,.5s-.05.45-.12.92a5.92,5.92,0,0,1-2,3.54A5.56,5.56,0,0,1,305.53,98a5.89,5.89,0,0,1-3.43-1.08,6.21,6.21,0,0,1-2.25-2.84,3.12,3.12,0,0,1-.15-.39A3.44,3.44,0,0,1,299.57,93.21Z"/></svg>