<?xml version="1.0" encoding="UTF-8"?>
<svg width="131px" height="131px" viewBox="0 0 131 131" version="1.1" xmlns="http://www.w3.org/2000/svg" xmlns:xlink="http://www.w3.org/1999/xlink">
    <!-- Generator: Sketch 52.5 (67469) - http://www.bohemiancoding.com/sketch -->
    <title>lease icon</title>
    <desc>Created with Sketch.</desc>
    <defs>
        <filter x="-6.7%" y="-12.1%" width="113.4%" height="124.3%" filterUnits="objectBoundingBox" id="filter-1">
            <feOffset dx="0" dy="0" in="SourceAlpha" result="shadowOffsetOuter1"></feOffset>
            <feGaussianBlur stdDeviation="7.5" in="shadowOffsetOuter1" result="shadowBlurOuter1"></feGaussianBlur>
            <feColorMatrix values="0 0 0 0 0   0 0 0 0 0   0 0 0 0 0  0 0 0 0.0995244565 0" type="matrix" in="shadowBlurOuter1" result="shadowMatrixOuter1"></feColorMatrix>
            <feMerge>
                <feMergeNode in="shadowMatrixOuter1"></feMergeNode>
                <feMergeNode in="SourceGraphic"></feMergeNode>
            </feMerge>
        </filter>
    </defs>
    <g id="Desktop" stroke="none" stroke-width="1" fill="none" fill-rule="evenodd">
        <g id="Hennings-Category-page" transform="translate(-257.000000, -1490.000000)">
            <g id="Services-Copy" transform="translate(100.000000, 1180.000000)">
                <g id="Lease-Extensions" filter="url(#filter-1)" transform="translate(0.000000, 285.000000)">
                    <g id="lease-icon" transform="translate(172.000000, 40.000000)">
                        <path d="M100.4999,50.4999 C100.4999,78.1139 78.1139,100.4999 50.4999,100.4999 C22.8859,100.4999 0.4999,78.1139 0.4999,50.4999 C0.4999,22.8859 22.8859,0.4999 50.4999,0.4999 C78.1139,0.4999 100.4999,22.8859 100.4999,50.4999 Z" id="Stroke-1" stroke="#99C8CC"></path>
                        <path d="M36.4619,60.8143 C33.8599,60.8143 31.7439,62.9303 31.7439,65.5323 C31.7439,68.1323 33.8599,70.2503 36.4619,70.2503 C39.0639,70.2503 41.1799,68.1323 41.1799,65.5323 C41.1799,62.9303 39.0639,60.8143 36.4619,60.8143 M36.4619,71.9133 C32.9439,71.9133 30.0819,69.0503 30.0819,65.5323 C30.0819,62.0143 32.9439,59.1513 36.4619,59.1513 C39.9809,59.1513 42.8429,62.0143 42.8429,65.5323 C42.8429,69.0503 39.9809,71.9133 36.4619,71.9133" id="Fill-3" fill="#00757F"></path>
                        <path d="M26.3681,37.2206 C26.1501,37.2206 25.9331,37.1356 25.7701,36.9676 C25.4511,36.6366 25.4611,36.1106 25.7911,35.7916 L40.7611,21.3316 C41.0921,21.0126 41.6181,21.0226 41.9361,21.3516 C42.2551,21.6816 42.2461,22.2076 41.9161,22.5276 L26.9461,36.9876 C26.7841,37.1426 26.5761,37.2206 26.3681,37.2206" id="Fill-5" fill="#00757F"></path>
                        <path d="M59.622,26.2509 L49.871,26.2509 C49.411,26.2509 49.039,25.8789 49.039,25.4189 C49.039,24.9599 49.411,24.5879 49.871,24.5879 L59.622,24.5879 C60.081,24.5879 60.453,24.9599 60.453,25.4189 C60.453,25.8789 60.081,26.2509 59.622,26.2509" id="Fill-7" fill="#00757F"></path>
                        <path d="M59.622,28.6884 L49.871,28.6884 C49.411,28.6884 49.039,28.3164 49.039,27.8574 C49.039,27.3974 49.411,27.0254 49.871,27.0254 L59.622,27.0254 C60.081,27.0254 60.453,27.3974 60.453,27.8574 C60.453,28.3164 60.081,28.6884 59.622,28.6884" id="Fill-9" fill="#00757F"></path>
                        <path d="M54.1367,42.4003 L35.8137,42.4003 C35.3537,42.4003 34.9817,42.0283 34.9817,41.5703 C34.9817,41.1103 35.3537,40.7383 35.8137,40.7383 L54.1367,40.7383 C54.5957,40.7383 54.9687,41.1103 54.9687,41.5703 C54.9687,42.0283 54.5957,42.4003 54.1367,42.4003" id="Fill-11" fill="#00757F"></path>
                        <path d="M59.0126,46.9716 L31.5866,46.9716 C31.1276,46.9716 30.7556,46.5996 30.7556,46.1406 C30.7556,45.6816 31.1276,45.3096 31.5866,45.3096 L59.0126,45.3096 C59.4716,45.3096 59.8436,45.6816 59.8436,46.1406 C59.8436,46.5996 59.4716,46.9716 59.0126,46.9716" id="Fill-13" fill="#00757F"></path>
                        <path d="M59.0126,50.0614 L31.5866,50.0614 C31.1276,50.0614 30.7556,49.6894 30.7556,49.2304 C30.7556,48.7704 31.1276,48.3984 31.5866,48.3984 L59.0126,48.3984 C59.4716,48.3984 59.8436,48.7704 59.8436,49.2304 C59.8436,49.6894 59.4716,50.0614 59.0126,50.0614" id="Fill-15" fill="#00757F"></path>
                        <path d="M57.0126,53.1503 L31.5866,53.1503 C31.1276,53.1503 30.7556,52.7783 30.7556,52.3193 C30.7556,51.8603 31.1276,51.4883 31.5866,51.4883 L57.0126,51.4883 C57.4716,51.4883 57.8436,51.8603 57.8436,52.3193 C57.8436,52.7783 57.4716,53.1503 57.0126,53.1503" id="Fill-17" fill="#00757F"></path>
                        <path d="M55.0126,56.2401 L31.5866,56.2401 C31.1276,56.2401 30.7556,55.8681 30.7556,55.4091 C30.7556,54.9501 31.1276,54.5771 31.5866,54.5771 L55.0126,54.5771 C55.4716,54.5771 55.8436,54.9501 55.8436,55.4091 C55.8436,55.8681 55.4716,56.2401 55.0126,56.2401" id="Fill-19" fill="#00757F"></path>
                        <path d="M56.5478,71.0809 L46.7968,71.0809 C46.3368,71.0809 45.9648,70.7089 45.9648,70.2499 C45.9648,69.7909 46.3368,69.4189 46.7968,69.4189 L56.5478,69.4189 C57.0068,69.4189 57.3788,69.7909 57.3788,70.2499 C57.3788,70.7089 57.0068,71.0809 56.5478,71.0809" id="Fill-21" fill="#00757F"></path>
                        <path d="M74.8222,29.9003 L75.8642,28.1003 C75.9112,28.0183 76.0172,27.9903 76.0982,28.0373 L79.3852,29.9393 C79.4672,29.9863 79.4952,30.0913 79.4472,30.1733 L78.4062,31.9733 L74.8222,29.9003 Z M60.7512,62.4913 C60.7032,62.5733 60.5982,62.6013 60.5172,62.5533 L57.2292,60.6513 C57.1482,60.6043 57.1202,60.5003 57.1672,60.4183 L74.4542,30.5373 L78.0382,32.6103 L60.7512,62.4913 Z M57.2782,62.3793 L58.9682,63.3573 L57.4082,64.1053 L57.2782,62.3793 Z M79.9222,26.7353 L79.1352,28.0943 L77.8222,27.3353 L78.6082,25.9753 L79.9222,26.7353 Z M80.8252,25.5583 L79.1782,24.6063 C78.5662,24.2523 77.7862,24.4613 77.4312,25.0723 L76.5322,26.6273 C75.8062,26.3843 74.9892,26.6753 74.5912,27.3633 L55.8932,59.6813 C55.7022,60.0113 55.6462,60.3793 55.6952,60.7303 C55.6942,60.7593 55.6822,60.7863 55.6842,60.8153 L56.0082,65.1173 L55.0672,66.7433 C54.8642,67.0943 54.9842,67.5453 55.3362,67.7483 C55.6872,67.9513 56.1372,67.8313 56.3412,67.4793 L57.3262,65.7763 L61.1192,63.9593 C61.1202,63.9593 61.1202,63.9573 61.1212,63.9573 C61.4882,63.8353 61.8152,63.5883 62.0242,63.2283 L79.3112,33.3473 L79.7312,33.5903 C79.5332,34.6623 78.6112,39.0803 76.4742,42.7673 C75.8252,43.8893 75.0592,44.9353 74.1802,45.8073 C73.9602,45.6793 73.7722,45.5713 73.6382,45.4933 L74.4012,44.1743 C74.5032,43.9993 74.4432,43.7743 74.2662,43.6713 C74.0922,43.5713 73.8662,43.6303 73.7642,43.8063 L72.8172,45.4433 C72.7682,45.5273 72.7562,45.6293 72.7802,45.7223 C72.8052,45.8163 72.8682,45.8973 72.9522,45.9463 C72.9532,45.9463 73.3212,46.1603 74.0602,46.5873 C74.2012,46.6693 74.3792,46.6483 74.4972,46.5373 C75.5252,45.5673 76.3872,44.3853 77.1112,43.1353 C79.6502,38.7413 80.4972,33.4823 80.5022,33.4613 C80.5262,33.3103 80.4562,33.1593 80.3232,33.0833 L79.6792,32.7113 L80.7212,30.9103 C81.1192,30.2223 80.9642,29.3683 80.3922,28.8603 L81.2922,27.3053 C81.6452,26.6933 81.4362,25.9133 80.8252,25.5583 Z" id="Fill-23" fill="#00757F"></path>
                        <path d="M63.3232,63.9794 C63.2162,64.1664 63.0842,64.3334 62.9412,64.4924 L62.9412,75.1724 L27.1992,75.1724 L27.1992,37.2194 L41.3412,37.2194 C41.5612,37.2194 41.7732,37.1314 41.9282,36.9754 C42.0852,36.8204 42.1732,36.6084 42.1732,36.3874 L42.1692,22.7614 L62.9412,22.7614 L62.9412,44.5024 L64.6032,41.6294 L64.6032,21.9304 C64.6032,21.4704 64.2312,21.0984 63.7722,21.0984 L41.3392,21.0984 C41.1182,21.0984 40.9062,21.1864 40.7512,21.3424 C40.5942,21.4994 40.5072,21.7094 40.5072,21.9304 L40.5102,35.5564 L26.3682,35.5564 C25.9082,35.5564 25.5362,35.9284 25.5362,36.3874 L25.5362,76.0044 C25.5362,76.4624 25.9082,76.8344 26.3682,76.8344 L63.7722,76.8344 C64.2312,76.8344 64.6032,76.4624 64.6032,76.0044 L64.6032,61.7654 L63.3232,63.9794 Z" id="Fill-25" fill="#00757F"></path>
                        <path d="M74.8222,29.9003 L75.8642,28.1003 C75.9112,28.0183 76.0172,27.9903 76.0982,28.0373 L79.3852,29.9393 C79.4672,29.9863 79.4952,30.0913 79.4472,30.1733 L78.4062,31.9733 L74.8222,29.9003 Z M60.7512,62.4913 C60.7032,62.5733 60.5982,62.6013 60.5172,62.5533 L57.2292,60.6513 C57.1482,60.6043 57.1202,60.5003 57.1672,60.4183 L74.4542,30.5373 L78.0382,32.6103 L60.7512,62.4913 Z M57.2782,62.3793 L58.9682,63.3573 L57.4082,64.1053 L57.2782,62.3793 Z M79.9222,26.7353 L79.1352,28.0943 L77.8222,27.3353 L78.6082,25.9753 L79.9222,26.7353 Z M80.8252,25.5583 L79.1782,24.6063 C78.5662,24.2523 77.7862,24.4613 77.4312,25.0723 L76.5322,26.6273 C75.8062,26.3843 74.9892,26.6753 74.5912,27.3633 L55.8932,59.6813 C55.7022,60.0113 55.6462,60.3793 55.6952,60.7303 C55.6942,60.7593 55.6822,60.7863 55.6842,60.8153 L56.0082,65.1173 L55.0672,66.7433 C54.8642,67.0943 54.9842,67.5453 55.3362,67.7483 C55.6872,67.9513 56.1372,67.8313 56.3412,67.4793 L57.3262,65.7763 L61.1192,63.9593 C61.1202,63.9593 61.1202,63.9573 61.1212,63.9573 C61.4882,63.8353 61.8152,63.5883 62.0242,63.2283 L79.3112,33.3473 L79.7312,33.5903 C79.5332,34.6623 78.6112,39.0803 76.4742,42.7673 C75.8252,43.8893 75.0592,44.9353 74.1802,45.8073 C73.9602,45.6793 73.7722,45.5713 73.6382,45.4933 L74.4012,44.1743 C74.5032,43.9993 74.4432,43.7743 74.2662,43.6713 C74.0922,43.5713 73.8662,43.6303 73.7642,43.8063 L72.8172,45.4433 C72.7682,45.5273 72.7562,45.6293 72.7802,45.7223 C72.8052,45.8163 72.8682,45.8973 72.9522,45.9463 C72.9532,45.9463 73.3212,46.1603 74.0602,46.5873 C74.2012,46.6693 74.3792,46.6483 74.4972,46.5373 C75.5252,45.5673 76.3872,44.3853 77.1112,43.1353 C79.6502,38.7413 80.4972,33.4823 80.5022,33.4613 C80.5262,33.3103 80.4562,33.1593 80.3232,33.0833 L79.6792,32.7113 L80.7212,30.9103 C81.1192,30.2223 80.9642,29.3683 80.3922,28.8603 L81.2922,27.3053 C81.6452,26.6933 81.4362,25.9133 80.8252,25.5583 Z" id="Fill-27" fill="#00757F"></path>
                    </g>
                </g>
            </g>
        </g>
    </g>
</svg>