<?xml version="1.0" encoding="UTF-8"?>
<svg width="16px" height="16px" viewBox="0 0 16 16" version="1.1" xmlns="http://www.w3.org/2000/svg" xmlns:xlink="http://www.w3.org/1999/xlink">
    <!-- Generator: Sketch 52.5 (67469) - http://www.bohemiancoding.com/sketch -->
    <title>phone</title>
    <desc>Created with Sketch.</desc>
    <g id="Symbols" stroke="none" stroke-width="1" fill="none" fill-rule="evenodd">
        <g id="Nav" transform="translate(-1346.000000, -37.000000)" fill="#05A6DD">
            <g id="Phone">
                <g transform="translate(1325.000000, 21.000000)">
                    <path d="M27.64,19.8243534 C27.6608334,19.9701875 27.6191672,20.0951863 27.515,20.1993534 C27.1399981,20.6160222 26.8170847,21.037893 26.54625,21.4649784 C26.2754153,21.8920639 26.14,22.1681028 26.14,22.2931034 C26.2025003,22.7097722 26.6608291,23.428515 27.515,24.4493534 C28.3691709,25.4701919 29.4108272,26.2826838 30.64,26.8868534 C31.1191691,26.8035197 31.8274953,26.3556075 32.765,25.5431034 C32.9108341,25.4389363 33.0670825,25.4076866 33.23375,25.4493534 C33.6504188,25.5535206 34.0410398,25.6993525 34.405625,25.8868534 C34.7702102,26.0743544 35.0618739,26.2566442 35.280625,26.4337284 C35.4993761,26.6108127 35.6972908,26.7983108 35.874375,26.9962284 C36.0514592,27.1941461 36.1660414,27.3347697 36.218125,27.4181034 C36.2702086,27.5014372 36.3066666,27.5639366 36.3275,27.6056034 C36.3691669,27.7097706 36.39,27.8139363 36.39,27.9181034 C36.3066662,28.3764391 36.1816675,28.7931016 36.015,29.1681034 C35.8483325,29.5431053 35.6868758,29.8399774 35.530625,30.0587284 C35.3743742,30.2774795 35.1972927,30.4701859 34.999375,30.6368534 C34.8014573,30.8035209 34.6608338,30.9128949 34.5775,30.9649784 C34.4941662,31.017062 34.4212503,31.05352 34.35875,31.0743534 C34.2962497,31.1160203 34.2337503,31.1368534 34.17125,31.1368534 C34.1087497,31.1368534 34.0566669,31.1264369 34.015,31.1056034 C33.9524997,31.08477 33.8170844,31.0431038 33.60875,30.9806034 C33.1295809,30.8556028 32.7285433,30.7410206 32.405625,30.6368534 C32.0827067,30.5326863 31.5722952,30.324355 30.874375,30.0118534 C30.1764548,29.6993519 29.5566694,29.3660219 29.015,29.0118534 C28.4733306,28.657685 27.8275037,28.15769 27.0775,27.5118534 C26.3274963,26.8660169 25.6608363,26.1576906 25.0775,25.3868534 C24.4941637,24.6160163 23.9004197,23.6576925 23.29625,22.5118534 C22.6920803,21.3660144 22.1712522,20.1264434 21.73375,18.7931034 C21.7129166,18.6889363 21.7129166,18.5951872 21.73375,18.5118534 C21.73375,18.4493531 21.7493748,18.3816455 21.780625,18.3087284 C21.8118752,18.2358114 21.9004159,18.1003961 22.04625,17.9024784 C22.1920841,17.7045608 22.3639573,17.5222709 22.561875,17.3556034 C22.7597927,17.1889359 23.0566647,17.0222709 23.4525,16.8556034 C23.8483353,16.6889359 24.2962475,16.5639372 24.79625,16.4806034 C24.8795838,16.45977 24.9733328,16.4701866 25.0775,16.5118534 C25.1608338,16.5326869 25.2597911,16.5795614 25.374375,16.6524784 C25.4889589,16.7253955 25.6816653,16.8608108 25.9525,17.0587284 C26.2233347,17.2566461 26.4681239,17.4753939 26.686875,17.7149784 C26.9056261,17.954563 27.1139573,18.2618516 27.311875,18.6368534 C27.5097927,19.0118553 27.6191666,19.4076847 27.64,19.8243534 Z" id="phone"></path>
                </g>
            </g>
        </g>
    </g>
</svg>