<?xml version="1.0" encoding="UTF-8"?>
<svg width="130px" height="130px" viewBox="0 0 130 130" version="1.1" xmlns="http://www.w3.org/2000/svg" xmlns:xlink="http://www.w3.org/1999/xlink">
    <!-- Generator: Sketch 52.5 (67469) - http://www.bohemiancoding.com/sketch -->
    <title>powers of attorney icon</title>
    <desc>Created with Sketch.</desc>
    <defs>
        <filter x="-6.7%" y="-12.1%" width="113.4%" height="124.3%" filterUnits="objectBoundingBox" id="filter-1">
            <feOffset dx="0" dy="0" in="SourceAlpha" result="shadowOffsetOuter1"></feOffset>
            <feGaussianBlur stdDeviation="7.5" in="shadowOffsetOuter1" result="shadowBlurOuter1"></feGaussianBlur>
            <feColorMatrix values="0 0 0 0 0   0 0 0 0 0   0 0 0 0 0  0 0 0 0.0995244565 0" type="matrix" in="shadowBlurOuter1" result="shadowMatrixOuter1"></feColorMatrix>
            <feMerge>
                <feMergeNode in="shadowMatrixOuter1"></feMergeNode>
                <feMergeNode in="SourceGraphic"></feMergeNode>
            </feMerge>
        </filter>
    </defs>
    <g id="Desktop" stroke="none" stroke-width="1" fill="none" fill-rule="evenodd">
        <g id="Hennings-Category-page" transform="translate(-1214.000000, -639.000000)">
            <g id="Services" transform="translate(100.000000, 612.000000)">
                <g id="POWERS-OF-ATTORNEY" filter="url(#filter-1)" transform="translate(960.000000, 0.000000)">
                    <g id="powers-of-attorney-icon" transform="translate(169.000000, 42.000000)">
                        <path d="M99.5052475,49.999802 C99.5052475,77.340396 77.3408911,99.5047525 50.000297,99.5047525 C22.659703,99.5047525 0.495346535,77.340396 0.495346535,49.999802 C0.495346535,22.6592079 22.659703,0.494851485 50.000297,0.494851485 C77.3408911,0.494851485 99.5052475,22.6592079 99.5052475,49.999802 Z" id="Stroke-1" stroke="#99C8CC"></path>
                        <path d="M53.4646535,59.0779208 L52.6725743,59.230396 C52.9963366,60.9076238 54.4626733,62.0739604 56.1121782,62.0739604 C56.3319802,62.0739604 56.5547525,62.0531683 56.7775248,62.0115842 C58.4547525,61.6868317 59.6220792,60.2214851 59.6220792,58.5709901 C59.6220792,58.3511881 59.600297,58.1274257 59.5587129,57.9056436 C59.2339604,56.2274257 57.7686139,55.0610891 56.1181188,55.0610891 C55.8983168,55.0610891 55.6755446,55.0818812 55.4537624,55.1254455 C53.7755446,55.450198 52.6092079,56.9125743 52.6092079,58.5650495 C52.6092079,58.7838614 52.63,59.0076238 52.6725743,59.230396 L53.4646535,59.0779208 L54.2557426,58.9254455 C54.2309901,58.8036634 54.2220792,58.6838614 54.2220792,58.5650495 C54.2220792,57.6789109 54.8517822,56.879901 55.7577228,56.7086139 C55.8785149,56.6848515 55.9993069,56.6729703 56.1181188,56.6729703 C57.0052475,56.6729703 57.8032673,57.3046535 57.9755446,58.2105941 C57.9983168,58.3313861 58.010198,58.4521782 58.010198,58.5709901 C58.010198,59.4571287 57.379505,60.2541584 56.4725743,60.4274257 C56.3507921,60.4511881 56.2309901,60.4630693 56.1121782,60.4630693 C55.2260396,60.4630693 54.4280198,59.8313861 54.2557426,58.9264356 L53.4646535,59.0779208 Z" id="Fill-3" fill="#00757F"></path>
                        <path d="M57.3487129,60.6085149 L58.0051485,64.0243564 L57.42,63.9075248 C56.9833663,63.8213861 56.559604,64.1035644 56.4724752,64.5411881 C56.3843564,64.9768317 56.6685149,65.4015842 57.1051485,65.4887129 L58.8655446,65.840198 C59.1308911,65.8926733 59.3992079,65.8124752 59.5912871,65.6213861 C59.7823762,65.4312871 59.8665347,65.1629703 59.8140594,64.8976238 L58.9308911,60.3035644 C58.8467327,59.8659406 58.4249505,59.579802 57.9883168,59.6649505 C57.5506931,59.7481188 57.2635644,60.1708911 57.3487129,60.6085149" id="Fill-5" fill="#00757F"></path>
                        <path d="M54.1453465,61.2254455 L55.0285149,65.8175248 C55.0790099,66.0828713 55.2572277,66.3016832 55.5047525,66.4076238 C55.7532673,66.5135644 56.0334653,66.4878218 56.260198,66.3412871 L57.7631683,65.3630693 C58.1354455,65.119505 58.2423762,64.620495 57.9988119,64.2472277 C57.7562376,63.8739604 57.2572277,63.7690099 56.8849505,64.0105941 L56.3849505,64.3353465 L55.7275248,60.919505 C55.6433663,60.4818812 55.2215842,60.1957426 54.7839604,60.2808911 C54.3473267,60.3650495 54.060198,60.7868317 54.1453465,61.2254455" id="Fill-7" fill="#00757F"></path>
                        <path d="M36.2423762,42.9356436 L40.8879208,23.550495 C40.930495,23.360396 41.1047525,23.2336634 41.2879208,23.2326733 L41.3839604,23.2445545 L78.1483168,32.0544554 C78.3384158,32.0980198 78.4661386,32.2722772 78.4661386,32.4564356 L78.4552475,32.5534653 L72.7710891,56.2712871 C72.729505,56.460396 72.5542574,56.5881188 72.370099,56.5881188 L72.2730693,56.5752475 L62.4265347,54.2178218 C61.9948515,54.1128713 61.5582178,54.3811881 61.4542574,54.8138614 C61.3512871,55.2465347 61.6186139,55.6811881 62.050297,55.7861386 L71.8978218,58.1435644 C72.0542574,58.1811881 72.2146535,58.2 72.370099,58.2 C73.2889109,58.2 74.1136634,57.5762376 74.3394059,56.6475248 L80.0235644,32.9277228 C80.060198,32.770297 80.0780198,32.6118812 80.0780198,32.4564356 C80.0780198,31.5386139 79.4542574,30.7108911 78.5235644,30.4861386 L41.760198,21.6772277 C41.6037624,21.639604 41.4443564,21.6207921 41.2879208,21.6207921 C40.370099,21.6207921 39.5443564,22.2465347 39.319604,23.1752475 L34.6740594,42.560396 C34.5720792,42.9930693 34.8384158,43.4277228 35.2710891,43.5316832 C35.7037624,43.6356436 36.1384158,43.3683168 36.2423762,42.9356436" id="Fill-9" fill="#00757F"></path>
                        <path d="M48.9493069,39.9286139 L40.2859406,25.8048515 C40.0532673,25.4256436 39.5572277,25.3068317 39.1780198,25.539505 C38.7978218,25.7721782 38.6790099,26.2682178 38.9126733,26.6484158 L47.5750495,40.7711881 C47.8087129,41.1494059 48.3047525,41.2692079 48.6829703,41.0365347 C49.0631683,40.8038614 49.1819802,40.3068317 48.9493069,39.9286139" id="Fill-11" fill="#00757F"></path>
                        <path d="M77.93,34.9945545 L60.5280198,45.669802 C60.149802,45.9014851 60.03,46.3975248 60.2616832,46.7777228 C60.4963366,47.1569307 60.9923762,47.2767327 61.3705941,47.0440594 L78.7735644,36.3678218 C79.1527723,36.1361386 79.2705941,35.640099 79.0379208,35.259901 C78.8062376,34.8806931 78.310198,34.7618812 77.93,34.9945545" id="Fill-13" fill="#00757F"></path>
                        <path d="M63.249604,45.0377228 L70.8911881,57.4961386 C71.1238614,57.8753465 71.6208911,57.9951485 72.000099,57.7624752 C72.380297,57.5288119 72.4981188,57.0317822 72.2644554,56.6525743 L64.6238614,44.1951485 C64.390198,43.8159406 63.8931683,43.6971287 63.5149505,43.9288119 C63.1357426,44.1624752 63.0169307,44.6585149 63.249604,45.0377228" id="Fill-15" fill="#00757F"></path>
                        <path d="M64.509505,67.1554455 L64.3580198,66.3643564 L26.2966337,73.6821782 L21.0550495,46.4168317 L58.3243564,39.2514851 L63.7184158,67.3069307 L64.509505,67.1554455 L64.3580198,66.3643564 L64.509505,67.1554455 L65.3005941,67.0039604 L59.7540594,38.1554455 C59.7144554,37.9475248 59.5906931,37.7594059 59.4154455,37.6405941 C59.240198,37.5207921 59.020396,37.4752475 58.810495,37.5168317 L19.9590099,44.9861386 C19.5223762,45.070297 19.2352475,45.4920792 19.3194059,45.9306931 L24.8659406,74.7782178 C24.9055446,74.9861386 25.0293069,75.1742574 25.2055446,75.2930693 C25.3807921,75.4128713 25.6015842,75.4574257 25.809505,75.4168317 L64.6609901,67.9465347 C65.099604,67.8633663 65.3847525,67.4405941 65.3005941,67.0039604 L64.509505,67.1554455 Z" id="Fill-17" fill="#00757F"></path>
                        <path d="M26.6314851,51.1368317 L55.0205941,45.6794059 C55.4582178,45.5952475 55.7433663,45.1724752 55.6592079,44.7358416 C55.5760396,44.2982178 55.1532673,44.0110891 54.7166337,44.0962376 L26.3265347,49.5536634 C25.889901,49.6378218 25.6037624,50.0615842 25.6879208,50.4972277 C25.7720792,50.9358416 26.1948515,51.2219802 26.6314851,51.1368317" id="Fill-19" fill="#00757F"></path>
                        <path d="M27.4968317,55.639703 L55.8869307,50.1822772 C56.3235644,50.0981188 56.609703,49.6743564 56.5255446,49.2387129 C56.4423762,48.800099 56.019604,48.5139604 55.5819802,48.5991089 L27.1928713,54.0565347 C26.7562376,54.1406931 26.470099,54.5624752 26.5542574,55.000099 C26.6374257,55.4367327 27.0611881,55.7228713 27.4968317,55.639703" id="Fill-21" fill="#00757F"></path>
                        <path d="M28.3631683,60.1424752 L51.4156436,55.709802 C51.8542574,55.6256436 52.1394059,55.2028713 52.0552475,54.7662376 C51.9710891,54.3286139 51.5493069,54.0414851 51.1116832,54.1276238 L28.0582178,58.5593069 C27.6215842,58.6434653 27.3344554,59.0652475 27.419604,59.5028713 C27.5037624,59.939505 27.9255446,60.2256436 28.3631683,60.1424752" id="Fill-23" fill="#00757F"></path>
                        <path d="M29.229505,64.6433663 L48.9879208,60.8463366 C49.4245545,60.7611881 49.7116832,60.3374257 49.6275248,59.9027723 C49.5433663,59.4641584 49.1205941,59.1770297 48.6829703,59.2621782 L28.9245545,63.0611881 C28.4869307,63.1443564 28.2007921,63.5681188 28.2859406,64.0047525 C28.370099,64.4423762 28.7918812,64.7285149 29.229505,64.6433663" id="Fill-25" fill="#00757F"></path>
                        <path d="M30.0938614,69.1462376 L49.8532673,65.3472277 C50.289901,65.2630693 50.5760396,64.8412871 50.4938614,64.4036634 C50.409703,63.9670297 49.9859406,63.679901 49.5493069,63.7640594 L29.7889109,67.5630693 C29.3532673,67.6482178 29.0661386,68.07 29.150297,68.5066337 C29.2344554,68.9442574 29.6582178,69.230396 30.0938614,69.1462376" id="Fill-27" fill="#00757F"></path>
                    </g>
                </g>
            </g>
        </g>
    </g>
</svg>