<?xml version="1.0" encoding="UTF-8"?>
<svg width="129px" height="130px" viewBox="0 0 129 130" version="1.1" xmlns="http://www.w3.org/2000/svg" xmlns:xlink="http://www.w3.org/1999/xlink">
    <!-- Generator: Sketch 52.5 (67469) - http://www.bohemiancoding.com/sketch -->
    <title>quotes icon</title>
    <desc>Created with Sketch.</desc>
    <defs>
        <filter x="-6.7%" y="-12.1%" width="113.4%" height="124.3%" filterUnits="objectBoundingBox" id="filter-1">
            <feOffset dx="0" dy="0" in="SourceAlpha" result="shadowOffsetOuter1"></feOffset>
            <feGaussianBlur stdDeviation="7.5" in="shadowOffsetOuter1" result="shadowBlurOuter1"></feGaussianBlur>
            <feColorMatrix values="0 0 0 0 0   0 0 0 0 0   0 0 0 0 0  0 0 0 0.0995244565 0" type="matrix" in="shadowBlurOuter1" result="shadowMatrixOuter1"></feColorMatrix>
            <feMerge>
                <feMergeNode in="shadowMatrixOuter1"></feMergeNode>
                <feMergeNode in="SourceGraphic"></feMergeNode>
            </feMerge>
        </filter>
    </defs>
    <g id="Desktop" stroke="none" stroke-width="1" fill="none" fill-rule="evenodd">
        <g id="Hennings-Category-page" transform="translate(-1215.000000, -922.000000)">
            <g id="Services" transform="translate(100.000000, 612.000000)">
                <g id="QUOTES" filter="url(#filter-1)" transform="translate(960.000000, 284.000000)">
                    <g id="quotes-icon" transform="translate(170.000000, 41.000000)">
                        <path d="M98.5193608,50 C98.5193608,77.3415842 76.5744535,99.5049505 49.5045584,99.5049505 C22.4346633,99.5049505 0.489755906,77.3415842 0.489755906,50 C0.489755906,22.6594059 22.4346633,0.495049505 49.5045584,0.495049505 C76.5744535,0.495049505 98.5193608,22.6594059 98.5193608,50 Z" id="Stroke-1" stroke="#99C8CC"></path>
                        <path d="M67.2532105,77.1450495 L31.7566905,77.1450495 C30.7665915,77.1450495 29.9617685,76.3331683 29.9617685,75.3331683 L29.9617685,34.1925743 L31.5998432,34.1925743 L31.5998432,75.3331683 C31.5998432,75.4193069 31.6714048,75.4905941 31.7566905,75.4905941 L67.2532105,75.4905941 C67.3384962,75.4905941 67.4100578,75.4193069 67.4100578,75.3331683 L67.4100578,24.6688119 C67.4100578,24.5816832 67.3384962,24.5084158 67.2532105,24.5084158 L42.0174493,24.5084158 L42.0174493,22.8549505 L67.2532105,22.8549505 C68.2423292,22.8549505 69.0481325,23.6688119 69.0481325,24.6688119 L69.0481325,75.3331683 C69.0481325,76.3331683 68.2423292,77.1450495 67.2532105,77.1450495" id="Fill-3" fill="#00757F"></path>
                        <path d="M32.8710911,33.3655446 L41.1977257,33.3655446 L41.1977257,25.5754455 L32.8710911,33.3655446 Z M42.0172532,35.02 L30.7810999,35.02 C30.4438781,35.02 30.1419469,34.8110891 30.0184296,34.4942574 C29.8958926,34.1784158 29.9772571,33.8180198 30.225272,33.5863366 L41.4604451,23.0744554 C41.7006176,22.8516832 42.0466621,22.7922772 42.3446721,22.9239604 C42.6436624,23.0556436 42.8358004,23.3536634 42.8358004,23.6823762 L42.8358004,34.1922772 C42.8358004,34.649703 42.4691697,35.02 42.0172532,35.02 Z" id="Fill-5" fill="#00757F"></path>
                        <path d="M52.1304774,41.7924752 L36.655524,41.7924752 C36.172238,41.7924752 35.7801196,42.1875248 35.7801196,42.6756436 C35.7801196,43.1637624 36.172238,43.5588119 36.655524,43.5588119 L52.1304774,43.5588119 C52.6127831,43.5588119 53.0049015,43.1637624 53.0049015,42.6756436 C53.0049015,42.1875248 52.6127831,41.7924752 52.1304774,41.7924752" id="Fill-7" fill="#00757F"></path>
                        <path d="M62.3536908,46.0250495 L36.6552299,46.0250495 C36.1719439,46.0250495 35.7808058,46.4210891 35.7808058,46.9082178 C35.7808058,47.3963366 36.1719439,47.7923762 36.6552299,47.7923762 L62.3536908,47.7923762 C62.8369768,47.7923762 63.2290952,47.3963366 63.2290952,46.9082178 C63.2290952,46.4210891 62.8369768,46.0250495 62.3536908,46.0250495" id="Fill-9" fill="#00757F"></path>
                        <path d="M62.3536908,50.2378218 L36.6552299,50.2378218 C36.1719439,50.2378218 35.7808058,50.6338614 35.7808058,51.1219802 C35.7808058,51.610099 36.1719439,52.0051485 36.6552299,52.0051485 L62.3536908,52.0051485 C62.8369768,52.0051485 63.2290952,51.610099 63.2290952,51.1219802 C63.2290952,50.6338614 62.8369768,50.2378218 62.3536908,50.2378218" id="Fill-11" fill="#00757F"></path>
                        <path d="M62.3536908,54.4510891 L36.6552299,54.4510891 C36.1719439,54.4510891 35.7808058,54.8461386 35.7808058,55.3352475 C35.7808058,55.8233663 36.1719439,56.2174257 36.6552299,56.2174257 L62.3536908,56.2174257 C62.8369768,56.2174257 63.2290952,55.8233663 63.2290952,55.3352475 C63.2290952,54.8461386 62.8369768,54.4510891 62.3536908,54.4510891" id="Fill-13" fill="#00757F"></path>
                        <path d="M62.3536908,58.6444554 L36.6552299,58.6444554 C36.1719439,58.6444554 35.7808058,59.040495 35.7808058,59.5286139 C35.7808058,60.0167327 36.1719439,60.4117822 36.6552299,60.4117822 L62.3536908,60.4117822 C62.8369768,60.4117822 63.2290952,60.0167327 63.2290952,59.5286139 C63.2290952,59.040495 62.8369768,58.6444554 62.3536908,58.6444554" id="Fill-15" fill="#00757F"></path>
                        <path d="M44.7073816,62.8379208 L36.6552299,62.8379208 C36.1719439,62.8379208 35.7808058,63.2339604 35.7808058,63.7220792 C35.7808058,64.210198 36.1719439,64.6052475 36.6552299,64.6052475 L44.7073816,64.6052475 C45.1906676,64.6052475 45.582786,64.210198 45.582786,63.7220792 C45.582786,63.2339604 45.1906676,62.8379208 44.7073816,62.8379208" id="Fill-17" fill="#00757F"></path>
                        <path d="M58.546417,37.9268317 L61.1696892,37.9268317 L61.1696892,39.129802 L59.1414567,39.129802 C59.2404666,39.4159406 59.2826194,39.6307921 59.2826194,39.9743564 C59.2826194,40.5763366 59.0277424,41.0773267 59.0277424,41.0773267 C59.6796393,41.2921782 60.0913636,41.7505941 60.6305264,41.7505941 C61.4529948,41.7505941 61.6235663,40.8624752 61.6235663,40.8624752 L62.9420645,41.6080198 C62.9420645,41.6080198 62.3607489,43.3545545 60.615822,43.3545545 C59.2688952,43.3545545 59.0002941,42.5525743 58.0768552,42.5525743 C57.2269385,42.5525743 56.8730517,43.4694059 56.8730517,43.4694059 L55.5682776,42.5525743 C55.5682776,42.5525743 56.2201745,41.2644554 57.2269385,41.0060396 C57.3828056,40.8347525 57.582786,40.3614851 57.582786,39.9317822 C57.582786,39.659505 57.4671111,39.4159406 57.3269287,39.129802 L55.5682776,39.129802 L55.5682776,37.9268317 L56.6740516,37.9268317 C56.4034899,37.439703 55.9790217,36.6812871 55.9790217,35.9070297 C55.9790217,34.5892079 56.9299088,32.9852475 59.2688952,32.9852475 C61.2971277,32.9852475 62.2039016,34.5892079 62.2039016,34.5892079 L60.9716694,35.5921782 C60.9716694,35.5921782 60.4609352,34.5892079 59.2688952,34.5892079 C58.2758553,34.5892079 57.6808156,35.219901 57.6808156,36.0218812 C57.6808156,36.5654455 58.248407,37.4535644 58.546417,37.9268317" id="Fill-19" fill="#00757F"></path>
                    </g>
                </g>
            </g>
        </g>
    </g>
</svg>