<?xml version="1.0" encoding="UTF-8"?>
<svg width="131px" height="131px" viewBox="0 0 131 131" version="1.1" xmlns="http://www.w3.org/2000/svg" xmlns:xlink="http://www.w3.org/1999/xlink">
    <!-- Generator: Sketch 52.5 (67469) - http://www.bohemiancoding.com/sketch -->
    <title>remorgages icon</title>
    <desc>Created with Sketch.</desc>
    <defs>
        <filter x="-6.7%" y="-12.1%" width="113.4%" height="124.3%" filterUnits="objectBoundingBox" id="filter-1">
            <feOffset dx="0" dy="0" in="SourceAlpha" result="shadowOffsetOuter1"></feOffset>
            <feGaussianBlur stdDeviation="7.5" in="shadowOffsetOuter1" result="shadowBlurOuter1"></feGaussianBlur>
            <feColorMatrix values="0 0 0 0 0   0 0 0 0 0   0 0 0 0 0  0 0 0 0.0995244565 0" type="matrix" in="shadowBlurOuter1" result="shadowMatrixOuter1"></feColorMatrix>
            <feMerge>
                <feMergeNode in="shadowMatrixOuter1"></feMergeNode>
                <feMergeNode in="SourceGraphic"></feMergeNode>
            </feMerge>
        </filter>
        <polygon id="path-2" points="0 101 101 101 101 0 0 0"></polygon>
    </defs>
    <g id="Desktop" stroke="none" stroke-width="1" fill="none" fill-rule="evenodd">
        <g id="Hennings-Category-page" transform="translate(-1212.000000, -1206.000000)">
            <g id="Services-Copy" transform="translate(100.000000, 1180.000000)">
                <g id="Re-Morgages" filter="url(#filter-1)" transform="translate(960.000000, 0.000000)">
                    <g id="remorgages-icon" transform="translate(167.000000, 41.000000)">
                        <path d="M100.4999,50.5 C100.4999,78.114 78.1139,100.5 50.4999,100.5 C22.8859,100.5 0.4999,78.114 0.4999,50.5 C0.4999,22.886 22.8859,0.5 50.4999,0.5 C78.1139,0.5 100.4999,22.886 100.4999,50.5 Z" id="Stroke-1" stroke="#99C8CC"></path>
                        <mask id="mask-3" fill="white">
                            <use xlink:href="#path-2"></use>
                        </mask>
                        <g id="Clip-4"></g>
                        <path d="M56.884,61.187 L62.079,61.187 L62.079,55.993 L56.884,55.993 L56.884,61.187 Z M56.051,62.854 L62.912,62.854 C63.372,62.854 63.745,62.48 63.745,62.02 L63.745,55.16 C63.745,54.7 63.372,54.327 62.912,54.327 L56.051,54.327 C55.591,54.327 55.218,54.7 55.218,55.16 L55.218,62.02 C55.218,62.48 55.591,62.854 56.051,62.854 Z" id="Fill-3" fill="#00757F" mask="url(#mask-3)"></path>
                        <path d="M29.5795,50.6699 C29.5785,50.6709 29.5785,50.6719 29.5775,50.6729 L28.2545,51.9949 L25.4125,49.1519 L46.7065,27.8569 C46.7405,27.8219 46.7715,27.7859 46.7975,27.7469 L50.1395,24.4059 L53.4765,27.7439 C53.5045,27.7839 53.5365,27.8209 53.5715,27.8569 L59.9335,34.2199 C59.9345,34.2209 59.9355,34.2209 59.9355,34.2219 L74.8665,49.1519 L72.0235,51.9949 L50.7285,30.6989 C50.5655,30.5369 50.3525,30.4549 50.1395,30.4549 C49.9255,30.4549 49.7125,30.5369 49.5495,30.6989 L29.5795,50.6699 Z M61.3575,26.3199 L68.3225,26.3199 L68.3225,40.2509 L61.3575,33.2859 L61.3575,26.3199 Z M59.7205,71.6499 L49.4195,71.6499 L49.4195,55.1599 C49.4195,54.6999 49.0465,54.3269 48.5865,54.3269 L38.3595,54.3269 C37.8995,54.3269 37.5265,54.6999 37.5265,55.1599 L37.5265,71.6499 L30.9995,71.6499 L30.9995,51.6059 L50.1395,32.4669 L69.2775,51.6059 L69.2775,63.9999 C69.6985,63.9529 70.1255,63.9249 70.5595,63.9249 C70.6895,63.9249 70.8145,63.9399 70.9435,63.9439 L70.9435,53.2719 L71.4345,53.7629 C71.5965,53.9249 71.8105,54.0059 72.0235,54.0059 C72.2365,54.0059 72.4505,53.9249 72.6125,53.7629 L76.6335,49.7409 C76.7895,49.5849 76.8775,49.3729 76.8775,49.1519 C76.8775,48.9309 76.7895,48.7199 76.6335,48.5639 L69.9885,41.9169 L69.9885,25.4869 C69.9885,25.0269 69.6155,24.6539 69.1555,24.6539 L60.5245,24.6539 C60.0635,24.6539 59.6905,25.0269 59.6905,25.4869 L59.6905,31.6189 L54.8535,26.7819 C54.8255,26.7409 54.7935,26.7039 54.7585,26.6689 L50.7375,22.6479 C50.6135,22.5239 50.4585,22.4479 50.2965,22.4209 C50.0295,22.3669 49.7455,22.4419 49.5395,22.6479 L45.5195,26.6689 C45.4855,26.7019 45.4545,26.7399 45.4275,26.7779 L23.6435,48.5639 C23.4875,48.7199 23.3995,48.9309 23.3995,49.1519 C23.3995,49.3729 23.4875,49.5849 23.6435,49.7409 L27.6655,53.7629 C27.9915,54.0879 28.5175,54.0879 28.8435,53.7629 L29.3335,53.2719 L29.3335,72.4829 C29.3335,72.9429 29.7065,73.3169 30.1665,73.3169 L38.3595,73.3169 C38.8195,73.3169 39.1925,72.9429 39.1925,72.4829 L39.1925,55.9929 L47.7535,55.9929 L47.7535,72.4829 C47.7535,72.9429 48.1265,73.3169 48.5865,73.3169 L59.2785,73.3169 C59.3835,72.7449 59.5335,72.1899 59.7205,71.6499 Z" id="Fill-5" fill="#00757F" mask="url(#mask-3)"></path>
                        <path d="M75.3729,80.3848 C72.2839,83.4738 67.2749,83.4738 64.1859,80.3848 C62.2549,78.4528 61.5309,75.7738 62.0139,73.2808" id="Stroke-6" stroke="#00757F" stroke-width="1.89" stroke-linecap="round" mask="url(#mask-3)"></path>
                        <polyline id="Stroke-7" stroke="#00757F" stroke-width="1.89" stroke-linecap="round" stroke-linejoin="round" mask="url(#mask-3)" points="73.1771 79.539 76.2191 79.539 76.2191 82.58"></polyline>
                        <path d="M64.0965,69.1074 C67.1855,66.0184 72.1945,66.0184 75.2835,69.1074 C77.2145,71.0384 77.9385,73.7184 77.4555,76.2114" id="Stroke-8" stroke="#00757F" stroke-width="1.89" stroke-linecap="round" mask="url(#mask-3)"></path>
                        <polyline id="Stroke-9" stroke="#00757F" stroke-width="1.89" stroke-linecap="round" stroke-linejoin="round" mask="url(#mask-3)" points="66.2919 69.9531 63.2509 69.9531 63.2509 66.9121"></polyline>
                    </g>
                </g>
            </g>
        </g>
    </g>
</svg>