<?xml version="1.0" encoding="UTF-8"?>
<svg width="129px" height="130px" viewBox="0 0 129 130" version="1.1" xmlns="http://www.w3.org/2000/svg" xmlns:xlink="http://www.w3.org/1999/xlink">
    <!-- Generator: Sketch 52.5 (67469) - http://www.bohemiancoding.com/sketch -->
    <title>residential conveyancing icon</title>
    <desc>Created with Sketch.</desc>
    <defs>
        <filter x="-6.7%" y="-12.1%" width="113.4%" height="124.3%" filterUnits="objectBoundingBox" id="filter-1">
            <feOffset dx="0" dy="0" in="SourceAlpha" result="shadowOffsetOuter1"></feOffset>
            <feGaussianBlur stdDeviation="7.5" in="shadowOffsetOuter1" result="shadowBlurOuter1"></feGaussianBlur>
            <feColorMatrix values="0 0 0 0 0   0 0 0 0 0   0 0 0 0 0  0 0 0 0.0995244565 0" type="matrix" in="shadowBlurOuter1" result="shadowMatrixOuter1"></feColorMatrix>
            <feMerge>
                <feMergeNode in="shadowMatrixOuter1"></feMergeNode>
                <feMergeNode in="SourceGraphic"></feMergeNode>
            </feMerge>
        </filter>
        <polygon id="path-2" points="0 100 99.9081081 100 99.9081081 0 0 0"></polygon>
    </defs>
    <g id="Desktop" stroke="none" stroke-width="1" fill="none" fill-rule="evenodd">
        <g id="Hennings-Category-page" transform="translate(-258.000000, -639.000000)">
            <g id="Services" transform="translate(100.000000, 612.000000)">
                <g id="RESIDENTIAL" filter="url(#filter-1)" transform="translate(0.000000, 2.000000)">
                    <g id="residential-conveyancing-icon" transform="translate(172.562162, 40.000000)">
                        <path d="M99.4133157,49.999802 C99.4133157,77.340396 77.2693265,99.5047525 49.9538562,99.5047525 C22.6383859,99.5047525 0.494396757,77.340396 0.494396757,49.999802 C0.494396757,22.6592079 22.6383859,0.494851485 49.9538562,0.494851485 C77.2693265,0.494851485 99.4133157,22.6592079 99.4133157,49.999802 Z" id="Stroke-1" stroke="#99C8CC"></path>
                        <path d="M49.9543508,28.7614851 C50.1650481,28.7614851 50.3767346,28.8426733 50.5389616,29.0040594 L71.6581508,50.1436634 L74.4783292,47.3218812 L53.3581508,26.1822772 C53.3235292,26.1466337 53.2918751,26.11 53.265167,26.070396 L49.9543508,22.7565347 L46.640567,26.0733663 C46.6148481,26.1119802 46.5831941,26.1476238 46.5505508,26.1822772 L25.4303724,47.3218812 L28.2495616,50.1436634 L49.36974,29.0040594 C49.5309778,28.8426733 49.7426643,28.7614851 49.9543508,28.7614851 M71.6581508,52.1406931 C71.4474535,52.1406931 71.235767,52.059505 71.0745292,51.8981188 L49.9543508,30.7585149 L28.8341724,51.8981188 C28.5107076,52.2208911 27.9884157,52.2208911 27.66594,51.8981188 L23.6775292,47.9060396 C23.5222265,47.7515842 23.4351778,47.5406931 23.4351778,47.3218812 C23.4351778,47.1020792 23.5222265,46.8921782 23.6775292,46.7367327 L45.2814211,25.1119802 C45.3081292,25.0733663 45.3387941,25.0367327 45.3724265,25.0030693 L49.3598481,21.0109901 C49.5636211,20.8070297 49.84554,20.7327723 50.1096535,20.7862376 C50.2708914,20.8129703 50.4252049,20.8882178 50.5478643,21.0109901 L54.5352859,25.0030693 C54.5708968,25.0377228 54.6015616,25.0743564 54.6292589,25.1149505 L76.2311724,46.7367327 C76.3854859,46.8921782 76.4735238,47.1020792 76.4735238,47.3218812 C76.4735238,47.5406931 76.3854859,47.7515842 76.2311724,47.9060396 L72.2427616,51.8981188 C72.0815238,52.059505 71.8698373,52.1406931 71.6581508,52.1406931" id="Fill-3" fill="#00757F"></path>
                        <path d="M48.4141832,71.310099 C47.958167,71.310099 47.5882103,70.9388119 47.5882103,70.4823762 L47.5882103,54.1130693 L39.0979995,54.1130693 L39.0979995,70.4823762 C39.0979995,70.9388119 38.7270535,71.310099 38.2710373,71.310099 L30.1468265,71.310099 C29.6908103,71.310099 29.3208535,70.9388119 29.3208535,70.4823762 L29.3208535,49.4150495 C29.3208535,48.9576238 29.6908103,48.5873267 30.1468265,48.5873267 C30.6028427,48.5873267 30.9727995,48.9576238 30.9727995,49.4150495 L30.9727995,69.6546535 L37.4450643,69.6546535 L37.4450643,53.2853465 C37.4450643,52.8289109 37.8150211,52.4586139 38.2710373,52.4586139 L48.4141832,52.4586139 C48.8711886,52.4586139 49.2411454,52.8289109 49.2411454,53.2853465 L49.2411454,69.6546535 L68.934913,69.6546535 L68.934913,49.4150495 C68.934913,48.9576238 69.3048697,48.5873267 69.7608859,48.5873267 C70.2169022,48.5873267 70.5868589,48.9576238 70.5868589,49.4150495 L70.5868589,70.4823762 C70.5868589,70.9388119 70.2169022,71.310099 69.7608859,71.310099 L48.4141832,71.310099 Z" id="Fill-5" fill="#00757F"></path>
                        <path d="M67.9876654,40.4816832 L67.9876654,24.6569307 L61.0801573,24.6569307 L61.0801573,31.9143564 C61.0801573,32.3717822 60.7102005,32.7420792 60.2541843,32.7420792 C59.7971789,32.7420792 59.4272222,32.3717822 59.4272222,31.9143564 L59.4272222,23.830198 C59.4272222,23.3727723 59.7971789,23.0024752 60.2541843,23.0024752 L68.8136384,23.0024752 C69.2696546,23.0024752 69.6396114,23.3727723 69.6396114,23.830198 L69.6396114,40.4816832 C69.6396114,40.9391089 69.2696546,41.3094059 68.8136384,41.3094059 C68.3576222,41.3094059 67.9876654,40.9391089 67.9876654,40.4816832 Z" id="Fill-7" fill="#00757F"></path>
                        <mask id="mask-3" fill="white">
                            <use xlink:href="#path-2"></use>
                        </mask>
                        <g id="Clip-10"></g>
                        <path d="M56.6439405,59.2683168 L61.7956378,59.2683168 L61.7956378,54.1128713 L56.6439405,54.1128713 L56.6439405,59.2683168 Z M55.8179676,60.9237624 C55.3609622,60.9237624 54.9910054,60.5524752 54.9910054,60.0960396 L54.9910054,53.2851485 C54.9910054,52.8287129 55.3609622,52.4584158 55.8179676,52.4584158 L62.6216108,52.4584158 C63.077627,52.4584158 63.4475838,52.8287129 63.4475838,53.2851485 L63.4475838,60.0960396 C63.4475838,60.5524752 63.077627,60.9237624 62.6216108,60.9237624 L55.8179676,60.9237624 Z" id="Fill-9" fill="#00757F" mask="url(#mask-3)"></path>
                    </g>
                </g>
            </g>
        </g>
    </g>
</svg>