<?xml version="1.0" encoding="UTF-8"?>
<svg width="109px" height="109px" viewBox="0 0 109 109" version="1.1" xmlns="http://www.w3.org/2000/svg" xmlns:xlink="http://www.w3.org/1999/xlink">
    <!-- Generator: Sketch 52.5 (67469) - http://www.bohemiancoding.com/sketch -->
    <title>seahorse.2.stamp</title>
    <desc>Created with Sketch.</desc>
    <defs>
        <polygon id="path-1" points="0 0.0723995098 108.9276 0.0723995098 108.9276 108.983971 0 108.983971"></polygon>
    </defs>
    <g id="Desktop" stroke="none" stroke-width="1" fill="none" fill-rule="evenodd">
        <g id="Hennings-hompage" transform="translate(-746.000000, -190.000000)">
            <g id="Hero" transform="translate(0.000000, -156.000000)">
                <g id="seahorse.2.stamp" transform="translate(746.000000, 346.000000)">
                    <path d="M48.8135896,86.0162021 C48.755644,86.7175172 48.8315374,87.4781597 49.1684425,88.1198753 C49.613547,88.9673318 50.4294009,90.050465 52.1546936,90.0529143 C53.8671665,90.0553636 55.5665631,88.4333852 55.3260631,86.4597968 C55.198634,85.4163966 54.6794309,84.5596873 53.5807715,84.5139671 C53.046441,84.4919234 52.5846707,84.6130275 52.2267411,85.0163449 C51.8572736,85.4327253 51.7647144,85.9168695 51.8959895,86.3231805 C52.1511041,87.112126 53.1379745,87.1407012 53.3551425,86.4597968 C53.5405172,85.8779529 53.4992373,85.8790415 53.0913104,85.8172648 C52.3323765,85.7018757 52.9084996,85.0658752 53.2069452,84.9855927 C54.1066409,84.7428402 54.700199,85.6430926 54.7327614,86.5213014 C54.851473,89.7184493 49.3540736,90.1008116 49.6907224,85.6297576 C49.840458,83.6463719 51.6852315,82.0891639 53.5941041,82.0031664 C55.0127464,81.9394847 56.4672843,82.8424585 57.2882662,84.162357 C58.1948845,85.6194161 58.1659117,88.0986481 57.5910706,89.4424953 C56.9682832,89.4424953 56.6000977,92.2442179 55.7037352,92.2442179 C55.0917166,92.8927371 54.2525305,93.0995666 53.4379586,93.4451895 C53.4379586,93.5782679 53.4379586,93.7116185 53.4379586,93.8455133 C50.1237762,94.3655806 47.4082799,93.671069 45.1325037,90.2428708 C45.1325037,88.3501092 44,88.1329382 44,86.2401766 L44.0299984,86.0162021 L48.8135896,86.0162021" id="Fill-1" fill="#FFFFFE"></path>
                    <path d="M59,74 C58.2010327,74.8224987 57.2408591,75.751355 56.0768442,76.7993864 C55.2698039,77.5267087 52.8966161,78.9805352 51.2482256,80.7258906 C50.8360019,81.1625021 50.4578358,81.595023 50.1399643,82 L44,82 C44.5257493,80.4267258 45.8181742,78.0353162 46.6802112,77.4825294 C47.12952,77.1940003 47.3636348,76.3142321 48.0579064,75.878166 C48.6371388,75.5143685 49.3700091,74.9441282 49.7408591,74 L59,74" id="Fill-2" fill="#FFFFFE"></path>
                    <path d="M40.2333294,23 C40.5654997,22.7924663 40.8914586,22.6694733 41.1928424,22.6506562 C40.6319337,22.461667 40,22.1074144 40,21.4474518 C43.6322686,20.4926879 45.8383654,17.6943924 49.5438195,19.0407704 C49.3393862,18.1790012 48.2478152,17.6054883 48.544608,17.436407 C49.2986076,17.2359639 50.1082389,16.9422533 51.9200523,18.0969149 C53.7315956,19.2518493 53.974647,17.563218 53.9606041,15 C57.5904421,15 58.6023463,20.7705812 59.9996219,16.9978865 C62.845214,18.6567922 62.2627008,23.7963184 64.6543269,22.6506562 C64.8050187,22.6083859 64.9130416,22.7436509 65,23 L40.2333294,23" id="Fill-3" fill="#FFFFFE"></path>
                    <path d="M37.0009538,35.316889 C36.9629477,31.2939597 38.0726722,29.2983713 38.2069065,29.1498149 C36.579652,29.0446347 37.2656488,29.1688097 37.3597207,28.437368 C37.4227946,27.9477557 37.5300743,27.4655144 37.6715864,27 L65.9168645,27 C66.1858723,27.9179877 66.5904621,28.7092488 67.2527388,29.0571089 C67.5974893,29.1396087 67.6616414,29.4922884 67.2530083,29.7366693 C66.3653905,30.3408174 65.1394913,30.8443215 70.0891806,36.0650575 C70.8139921,36.8293857 72.81996,36.7945146 72.9630894,37.3252351 C73.2205066,38.2797949 72.0940702,38.3591762 70.74984,39.9082449 C70.5633135,40.1234249 70.0040038,39.9107965 69.7317614,39.7727298 C68.9778388,39.3914162 67.7390014,37.3209826 65.879667,36.6788448 C64.2529516,36.1175058 62.0286508,35.66078 59.9539485,34.285216 C59.5690355,34.0297784 59.0984067,33.9642889 58.6245433,33.9832837 C54.9870082,34.1270205 55.0193538,33.8735674 50.6090278,31.7546545 C50.2456786,32.8744975 52.329276,34.3535406 53.8406253,35.316889 L37.0009538,35.316889" id="Fill-4" fill="#FFFFFE"></path>
                    <path d="M43.8936929,46 C43.3538023,43.9605277 41.3741127,42.3000989 40.8168325,41.7045369 C40.4500221,41.6729045 39.9362157,41.8858779 39.7427572,41.8572451 C39.0738036,41.7590756 40.202493,41.2194158 39.2995958,40.3986093 C38.67792,39.833589 38.2624733,38.873709 38,38 L60.9286418,38 L60.8210441,38.0948972 C60.0735659,38.753724 64.947254,39.8204997 66.5484495,41.0296213 C65.5838739,43.001193 68.8109907,44.1595937 70,46 L43.8936929,46" id="Fill-5" fill="#FFFFFE"></path>
                    <path d="M47,58 C47.4314647,56.2849741 46.4622671,54.5391328 49.155193,54.5391328 C49.9597948,54.5391328 51.7935199,55.9061903 52.4729437,55.4655031 C52.8708501,55.2075266 50.7838392,54.0043632 50.3915259,53.7371148 C50.3915259,52.5189528 50.2583577,51.4630488 49.215385,50.9293701 L48.4307584,51.3305154 C48.1862617,51.0804472 47.9785194,50.5775839 47.7417465,50 L69.3717128,50 C69.600762,51.4679575 70,52.1208072 70,53.7371148 C69.848721,54.8418326 69.5080769,56.3992364 69.0795419,58 L47,58" id="Fill-6" fill="#FFFFFE"></path>
                    <path d="M54.3084935,68.1876193 L54.8197399,66.5132261 L51.2724806,69.9048268 C47.0206102,71.8764658 48.8700797,67.3678756 47.1031734,65.8658304 C46.4639137,65.3223343 46.0787981,64.2017998 46,63 L68,63 C67.4365801,64.5115899 66.8718156,65.6460322 66.4434013,65.8535588 C66.0125666,66.0624489 64.9760892,68.7008454 64.64745,69.0809926 C64.022175,69.3395146 63.6994523,69.9023725 62.8732825,71 L52.3968999,71 L54.3084935,68.1876193" id="Fill-7" fill="#FFFFFE"></path>
                    <g id="Group-11">
                        <mask id="mask-2" fill="white">
                            <use xlink:href="#path-1"></use>
                        </mask>
                        <g id="Clip-9"></g>
                        <path d="M54.4636667,6.59850735 C28.0308995,6.59850735 6.52610784,28.103299 6.52610784,54.5360662 C6.52610784,80.9691005 28.0308995,102.473892 54.4636667,102.473892 C80.896701,102.473892 102.401493,80.9691005 102.401493,54.5360662 C102.401493,28.103299 80.896701,6.59850735 54.4636667,6.59850735 Z M54.4636667,105.145461 C26.5577966,105.145461 3.85453922,82.4422034 3.85453922,54.5360662 C3.85453922,26.6301961 26.5577966,3.92693873 54.4636667,3.92693873 C82.3698039,3.92693873 105.073061,26.6301961 105.073061,54.5360662 C105.073061,82.4422034 82.3698039,105.145461 54.4636667,105.145461 Z" id="Fill-8" fill="#FFFFFE" mask="url(#mask-2)"></path>
                        <path d="M54.4636667,0.873870098 C24.874174,0.873870098 0.801470588,24.9465735 0.801470588,54.5360662 C0.801470588,84.1255588 24.874174,108.198529 54.4636667,108.198529 C84.0531593,108.198529 108.12613,84.1255588 108.12613,54.5360662 C108.12613,24.9465735 84.0531593,0.873870098 54.4636667,0.873870098 Z M54.4636667,109 C24.4322966,109 0,84.5674363 0,54.5360662 C0,24.5046961 24.4322966,0.0723995098 54.4636667,0.0723995098 C84.4950368,0.0723995098 108.9276,24.5046961 108.9276,54.5360662 C108.9276,84.5674363 84.4950368,109 54.4636667,109 Z" id="Fill-10" fill="#FFFFFE" mask="url(#mask-2)"></path>
                    </g>
                </g>
            </g>
        </g>
    </g>
</svg>