<svg xmlns="http://www.w3.org/2000/svg" xmlns:xlink="http://www.w3.org/1999/xlink" width="109" height="109" viewBox="0 0 109 109">
    <defs>
        <path id="a" d="M0 .072h108.928v108.912H0z"/>
    </defs>
    <g fill="none" fill-rule="evenodd">
        <path fill="#FFFFFE" d="M48.814 86.016c-.058.702.018 1.462.354 2.104.446.847 1.261 1.93 2.987 1.933 1.712.002 3.412-1.62 3.171-3.593-.127-1.044-.647-1.9-1.745-1.946-.535-.022-.996.099-1.354.502-.37.417-.462.9-.331 1.307.255.79 1.242.818 1.46.137.185-.582.143-.581-.265-.643-.759-.115-.183-.751.116-.831.9-.243 1.493.657 1.526 1.535.118 3.197-5.379 3.58-5.042-.891.15-1.984 1.994-3.54 3.903-3.627 1.419-.064 2.873.84 3.694 2.16.907 1.456.878 3.936.303 5.28-.623 0-.99 2.801-1.887 2.801-.612.649-1.451.856-2.266 1.201v.4c-3.314.52-6.03-.174-8.305-3.602 0-1.893-1.133-2.11-1.133-4.003l.03-.224h4.784M59 74a60.592 60.592 0 0 1-2.923 2.8c-.807.727-3.18 2.18-4.829 3.926-.412.437-.79.869-1.108 1.274H44c.526-1.573 1.818-3.965 2.68-4.517.45-.289.684-1.169 1.378-1.605.58-.364 1.312-.934 1.683-1.878H59M40.233 23c.332-.208.658-.33.96-.35-.561-.188-1.193-.543-1.193-1.203 3.632-.954 5.838-3.753 9.544-2.406-.205-.862-1.296-1.436-1-1.605.755-.2 1.564-.494 3.376.66 1.812 1.156 2.055-.533 2.04-3.096 3.63 0 4.642 5.77 6.04 1.998 2.845 1.659 2.263 6.798 4.654 5.653.151-.043.259.093.346.349H40.233M37.001 35.317c-.038-4.023 1.072-6.019 1.206-6.167-1.627-.105-.941.019-.847-.713.063-.49.17-.971.312-1.437h28.245c.269.918.673 1.71 1.336 2.057.344.083.409.435 0 .68-.888.604-2.114 1.107 2.836 6.328.725.764 2.731.73 2.874 1.26.258.955-.869 1.034-2.213 2.583-.187.215-.746.003-1.018-.135-.754-.382-1.993-2.452-3.852-3.094-1.627-.561-3.851-1.018-5.926-2.394-.385-.255-.856-.32-1.33-.302-3.637.144-3.605-.11-8.015-2.228-.363 1.12 1.72 2.599 3.232 3.562H37"/>
        <path fill="#FFFFFE" d="M43.894 46c-.54-2.04-2.52-3.7-3.077-4.295-.367-.032-.88.18-1.074.152-.67-.098.46-.638-.443-1.458-.622-.565-1.038-1.525-1.3-2.399h22.929l-.108.095c-.747.659 4.126 1.725 5.727 2.935C65.584 43 68.811 44.16 70 46H43.894M47 58c.431-1.715-.538-3.46 2.155-3.46.805 0 2.639 1.366 3.318.926.398-.258-1.69-1.462-2.081-1.729 0-1.218-.134-2.274-1.177-2.808l-.784.402c-.245-.25-.452-.753-.69-1.331h21.63c.23 1.468.629 2.12.629 3.737-.151 1.105-.492 2.662-.92 4.263H47M54.308 68.188l.512-1.675-3.548 3.392c-4.251 1.971-2.402-2.537-4.169-4.04-.64-.543-1.024-1.663-1.103-2.865h22c-.563 1.512-1.128 2.646-1.557 2.854-.43.208-1.467 2.847-1.796 3.227-.625.259-.948.821-1.774 1.919H52.397l1.911-2.812"/>
        <g>
            <mask id="b" fill="#fff">
                <use xlink:href="#a"/>
            </mask>
            <path fill="#FFFFFE" d="M54.464 6.599c-26.433 0-47.938 21.504-47.938 47.937 0 26.433 21.505 47.938 47.938 47.938 26.433 0 47.937-21.505 47.937-47.938 0-26.433-21.504-47.937-47.937-47.937zm0 98.546c-27.906 0-50.61-22.703-50.61-50.609 0-27.906 22.704-50.61 50.61-50.61s50.61 22.704 50.61 50.61-22.704 50.61-50.61 50.61z" mask="url(#b)"/>
            <path fill="#FFFFFE" d="M54.464.874C24.874.874.8 24.947.8 54.536c0 29.59 24.073 53.663 53.663 53.663 29.59 0 53.662-24.073 53.662-53.663 0-29.59-24.073-53.662-53.662-53.662zm0 108.126C24.432 109 0 84.567 0 54.536S24.432.072 54.464.072c30.031 0 54.464 24.433 54.464 54.464S84.495 109 54.464 109z" mask="url(#b)"/>
        </g>
    </g>
</svg>
