<svg xmlns="http://www.w3.org/2000/svg" width="49" height="108" viewBox="0 0 49 108">
    <g fill="none" fill-rule="evenodd">
        <path fill="#8EC0D5" d="M15.42 96.86c-.084.978.025 2.04.513 2.935.645 1.182 1.827 2.694 4.325 2.698 2.48.003 4.942-2.26 4.593-5.014-.184-1.456-.936-2.651-2.527-2.715-.774-.031-1.443.138-1.961.7-.535.582-.67 1.257-.48 1.824.37 1.101 1.8 1.141 2.114.19.269-.81.209-.81-.382-.896-1.1-.16-.265-1.048.167-1.16 1.303-.339 2.163.917 2.21 2.143.172 4.46-7.79 4.995-7.302-1.244.217-2.768 2.888-4.94 5.653-5.06 2.055-.09 4.161 1.17 5.35 3.012 1.313 2.033 1.272 5.493.438 7.368-.901 0-1.435 3.91-2.733 3.91-.886.904-2.101 1.193-3.281 1.675v.558c-4.8.726-8.733-.243-12.029-5.026 0-2.641-1.64-2.944-1.64-5.586l.044-.312h6.928"/>
        <path fill="#52ACD1" d="M30.414 81.21a84.592 84.592 0 0 1-4.28 3.515c-1.183.913-4.658 2.739-7.072 4.93a25.202 25.202 0 0 0-1.623 1.6H8.45c.77-1.975 2.662-4.978 3.924-5.673.658-.362 1-1.467 2.018-2.014.848-.457 1.921-1.173 2.464-2.359h13.559"/>
        <path fill="#5ABBB0" d="M5.384 10.047c.45-.261.89-.415 1.297-.44-.758-.236-1.612-.681-1.612-1.51 4.91-1.2 7.892-4.713 12.9-3.023-.276-1.081-1.751-1.802-1.35-2.014 1.02-.252 2.114-.62 4.563.83C23.63 5.34 23.959 3.219 23.94 0c4.906 0 6.274 7.247 8.163 2.509 3.846 2.083 3.059 8.537 6.291 7.099.204-.053.35.116.468.439H5.384"/>
        <path fill="#208F9B" d="M.001 27.456c-.051-5.181 1.46-7.752 1.642-7.943-2.215-.136-1.281.024-1.153-.918.086-.63.232-1.252.424-1.85H39.36c.366 1.181.917 2.2 1.818 2.649.47.106.557.56.001.875-1.208.778-2.877 1.426 3.86 8.15.987.986 3.717.94 3.912 1.624.35 1.23-1.183 1.332-3.012 3.327-.255.277-1.016.003-1.387-.174-1.026-.491-2.712-3.158-5.243-3.986-2.213-.723-5.241-1.31-8.065-3.083-.524-.329-1.164-.413-1.81-.388-4.95.185-4.907-.142-10.91-2.87-.494 1.441 2.342 3.347 4.399 4.587H.002"/>
        <path fill="#1A798D" d="M11.16 41.86c-.713-2.56-3.327-4.646-4.062-5.394-.484-.04-1.163.228-1.418.192-.883-.123.607-.801-.585-1.832-.82-.71-1.37-1.915-1.716-3.012h30.267l-.142.12c-.986.827 5.447 2.166 7.56 3.685-1.273 2.476 2.987 3.93 4.557 6.241H11.159"/>
        <path fill="#1E84B5" d="M13.517 59.442c.602-2.154-.75-4.346 3.009-4.346 1.122 0 3.682 1.717 4.63 1.163.556-.324-2.357-1.835-2.905-2.17 0-1.53-.186-2.856-1.642-3.526l-1.095.503c-.341-.314-.631-.945-.961-1.67h30.191c.32 1.843.877 2.662.877 4.692-.211 1.388-.687 3.344-1.285 5.354H13.517"/>
        <path fill="#259BCA" d="M23.314 72.654l.706-2.103-4.904 4.26c-5.878 2.476-3.32-3.187-5.764-5.073-.883-.682-1.415-2.09-1.524-3.598H42.24c-.779 1.898-1.56 3.322-2.151 3.583-.596.262-2.029 3.576-2.483 4.053-.865.325-1.311 1.032-2.453 2.41H20.67l2.643-3.532"/>
    </g>
</svg>
