<?xml version="1.0" encoding="UTF-8"?>
<svg width="131px" height="131px" viewBox="0 0 131 131" version="1.1" xmlns="http://www.w3.org/2000/svg" xmlns:xlink="http://www.w3.org/1999/xlink">
    <!-- Generator: Sketch 52.5 (67469) - http://www.bohemiancoding.com/sketch -->
    <title>transfers icon</title>
    <desc>Created with Sketch.</desc>
    <defs>
        <filter x="-6.7%" y="-12.1%" width="113.4%" height="124.3%" filterUnits="objectBoundingBox" id="filter-1">
            <feOffset dx="0" dy="0" in="SourceAlpha" result="shadowOffsetOuter1"></feOffset>
            <feGaussianBlur stdDeviation="7.5" in="shadowOffsetOuter1" result="shadowBlurOuter1"></feGaussianBlur>
            <feColorMatrix values="0 0 0 0 0   0 0 0 0 0   0 0 0 0 0  0 0 0 0.0995244565 0" type="matrix" in="shadowBlurOuter1" result="shadowMatrixOuter1"></feColorMatrix>
            <feMerge>
                <feMergeNode in="shadowMatrixOuter1"></feMergeNode>
                <feMergeNode in="SourceGraphic"></feMergeNode>
            </feMerge>
        </filter>
        <polygon id="path-2" points="0 101 101 101 101 0 0 0"></polygon>
    </defs>
    <g id="Desktop" stroke="none" stroke-width="1" fill="none" fill-rule="evenodd">
        <g id="Hennings-Category-page" transform="translate(-734.000000, -1207.000000)">
            <g id="Services-Copy" transform="translate(100.000000, 1180.000000)">
                <g id="Transfers-of-Equity" filter="url(#filter-1)" transform="translate(480.000000, 0.000000)">
                    <g id="transfers-icon" transform="translate(169.000000, 42.000000)">
                        <path d="M100.5,50.4996 C100.5,78.1136 78.114,100.4996 50.5,100.4996 C22.886,100.4996 0.5,78.1136 0.5,50.4996 C0.5,22.8856 22.886,0.4996 50.5,0.4996 C78.114,0.4996 100.5,22.8856 100.5,50.4996 Z" id="Stroke-1" stroke="#99C8CC"></path>
                        <mask id="mask-3" fill="white">
                            <use xlink:href="#path-2"></use>
                        </mask>
                        <g id="Clip-4"></g>
                        <path d="M57.263,59.862 L62.471,59.862 L62.471,54.654 L57.263,54.654 L57.263,59.862 Z M63.306,61.533 L56.427,61.533 C55.966,61.533 55.592,61.158 55.592,60.697 L55.592,53.819 C55.592,53.357 55.966,52.983 56.427,52.983 L63.306,52.983 C63.768,52.983 64.142,53.357 64.142,53.819 L64.142,60.697 C64.142,61.158 63.768,61.533 63.306,61.533 Z" id="Fill-3" fill="#00757F" mask="url(#mask-3)"></path>
                        <path d="M60.3467,67.1158 C56.0687,67.1158 52.5887,70.5958 52.5887,74.8748 C52.5887,79.1518 56.0687,82.6328 60.3467,82.6328 C64.6237,82.6328 68.1047,79.1518 68.1047,74.8748 C68.1047,70.5958 64.6237,67.1158 60.3467,67.1158 M60.3467,84.0428 C55.2907,84.0428 51.1777,79.9288 51.1777,74.8748 C51.1777,69.8188 55.2907,65.7058 60.3467,65.7058 C65.4017,65.7058 69.5147,69.8188 69.5147,74.8748 C69.5147,79.9288 65.4017,84.0428 60.3467,84.0428" id="Fill-5" fill="#00757F" mask="url(#mask-3)"></path>
                        <path d="M59.6665,74.5895 L62.1835,74.5895 L62.1835,75.7325 L60.2385,75.7325 C60.3325,76.0035 60.3735,76.2075 60.3735,76.5345 C60.3735,77.1065 60.1285,77.5815 60.1285,77.5815 C60.7545,77.7855 61.1485,78.2215 61.6665,78.2215 C62.4545,78.2215 62.6185,77.3775 62.6185,77.3775 L63.8835,78.0845 C63.8835,78.0845 63.3255,79.7445 61.6525,79.7445 C60.3595,79.7445 60.1025,78.9835 59.2165,78.9835 C58.4015,78.9835 58.0615,79.8535 58.0615,79.8535 L56.8105,78.9835 C56.8105,78.9835 57.4355,77.7585 58.4015,77.5135 C58.5515,77.3505 58.7415,76.9025 58.7415,76.4935 C58.7415,76.2355 58.6315,76.0035 58.4975,75.7325 L56.8105,75.7325 L56.8105,74.5895 L57.8715,74.5895 C57.6115,74.1265 57.2045,73.4055 57.2045,72.6705 C57.2045,71.4185 58.1155,69.8965 60.3595,69.8965 C62.3055,69.8965 63.1755,71.4185 63.1755,71.4185 L61.9925,72.3715 C61.9925,72.3715 61.5025,71.4185 60.3595,71.4185 C59.4075,71.4185 58.8365,72.0185 58.8365,72.7795 C58.8365,73.2965 59.3805,74.1405 59.6665,74.5895" id="Fill-6" fill="#00757F" mask="url(#mask-3)"></path>
                        <path d="M85.3516,73.6823 L78.0896,66.5983 C77.6016,66.1203 76.9056,65.9903 76.2796,66.2553 C75.6516,66.5203 75.2606,67.1083 75.2606,67.7903 L75.2606,69.2413 L66.7616,69.2413 L67.6476,70.5923 L76.6126,70.5923 L76.6126,67.7903 C76.6126,67.6033 76.7466,67.5253 76.8046,67.5013 C76.8626,67.4773 77.0116,67.4353 77.1456,67.5663 L84.4076,74.6503 C84.4906,74.7303 84.5026,74.8263 84.5026,74.8743 C84.5026,74.9243 84.4906,75.0193 84.4076,75.0993 L77.1466,82.1843 C77.0116,82.3153 76.8626,82.2733 76.8046,82.2483 C76.7476,82.2253 76.6126,82.1473 76.6126,81.9583 L76.6126,79.1583 L67.6476,79.1583 L66.7616,80.5093 L75.2606,80.5093 L75.2606,81.9583 C75.2606,82.6413 75.6516,83.2303 76.2796,83.4953 C76.4946,83.5853 76.7176,83.6293 76.9366,83.6293 C77.3586,83.6293 77.7686,83.4653 78.0906,83.1523 L85.3516,76.0673 C85.6756,75.7513 85.8536,75.3283 85.8536,74.8743 C85.8536,74.4213 85.6756,73.9983 85.3516,73.6823" id="Fill-7" fill="#00757F" mask="url(#mask-3)"></path>
                        <path d="M72.4414,50.6451 L51.0904,29.2931 C50.9274,29.1301 50.7134,29.0491 50.5004,29.0491 C50.2864,29.0491 50.0724,29.1301 49.9094,29.2931 L29.8864,49.3171 C29.8864,49.3171 29.8854,49.3181 29.8844,49.3191 L28.5584,50.6451 L25.7084,47.7951 L47.0594,26.4441 C47.0924,26.4101 47.1234,26.3731 47.1494,26.3331 L50.5004,22.9841 L53.8464,26.3311 C53.8744,26.3721 53.9054,26.4091 53.9414,26.4441 L60.3204,32.8241 C60.3214,32.8241 60.3214,32.8251 60.3224,32.8261 L75.2914,47.7951 L72.4414,50.6451 Z M61.7484,24.9031 L68.7304,24.9031 L68.7304,38.8711 L61.7484,31.8871 L61.7484,24.9031 Z M77.0644,47.2051 L70.4004,40.5411 L70.4004,24.0681 C70.4004,23.6071 70.0264,23.2331 69.5664,23.2331 L60.9124,23.2331 C60.4504,23.2331 60.0764,23.6071 60.0764,24.0681 L60.0764,30.2161 L55.2264,25.3661 C55.1984,25.3261 55.1664,25.2891 55.1314,25.2531 L51.1004,21.2211 C50.9754,21.0971 50.8204,21.0211 50.6574,20.9941 C50.3904,20.9401 50.1054,21.0151 49.8994,21.2211 L45.8684,25.2531 C45.8344,25.2871 45.8034,25.3241 45.7764,25.3631 L23.9364,47.2051 C23.7794,47.3611 23.6914,47.5731 23.6914,47.7951 C23.6914,48.0161 23.7794,48.2291 23.9364,48.3851 L27.9674,52.4161 C28.2944,52.7441 28.8224,52.7441 29.1494,52.4161 L29.6404,51.9251 L29.6404,71.1871 C29.6404,71.6481 30.0144,72.0231 30.4764,72.0231 L38.6894,72.0231 C39.1504,72.0231 39.5254,71.6481 39.5254,71.1871 L39.5254,54.6541 L48.1084,54.6541 L48.1084,71.1871 C48.1084,71.6481 48.4824,72.0231 48.9434,72.0231 L50.1934,72.0231 C50.3564,71.4441 50.5674,70.8861 50.8224,70.3521 L49.7784,70.3521 L49.7784,53.8191 C49.7784,53.3571 49.4044,52.9831 48.9434,52.9831 L38.6894,52.9831 C38.2284,52.9831 37.8544,53.3571 37.8544,53.8191 L37.8544,70.3521 L31.3114,70.3521 L31.3114,50.2541 L50.5004,31.0661 L69.6884,50.2541 L69.6884,67.7011 L71.3584,67.7011 L71.3584,51.9241 L71.8514,52.4161 C72.0134,52.5801 72.2284,52.6621 72.4414,52.6621 C72.6544,52.6621 72.8694,52.5801 73.0324,52.4161 L77.0644,48.3851 C77.2204,48.2291 77.3084,48.0161 77.3084,47.7951 C77.3084,47.5731 77.2204,47.3611 77.0644,47.2051 Z" id="Fill-8" fill="#00757F" mask="url(#mask-3)"></path>
                    </g>
                </g>
            </g>
        </g>
    </g>
</svg>