<?xml version="1.0" encoding="UTF-8"?>
<svg width="131px" height="131px" viewBox="0 0 131 131" version="1.1" xmlns="http://www.w3.org/2000/svg" xmlns:xlink="http://www.w3.org/1999/xlink">
    <!-- Generator: Sketch 52.5 (67469) - http://www.bohemiancoding.com/sketch -->
    <title>trust deeds icon</title>
    <desc>Created with Sketch.</desc>
    <defs>
        <filter x="-6.7%" y="-12.1%" width="113.4%" height="124.3%" filterUnits="objectBoundingBox" id="filter-1">
            <feOffset dx="0" dy="0" in="SourceAlpha" result="shadowOffsetOuter1"></feOffset>
            <feGaussianBlur stdDeviation="7.5" in="shadowOffsetOuter1" result="shadowBlurOuter1"></feGaussianBlur>
            <feColorMatrix values="0 0 0 0 0   0 0 0 0 0   0 0 0 0 0  0 0 0 0.0995244565 0" type="matrix" in="shadowBlurOuter1" result="shadowMatrixOuter1"></feColorMatrix>
            <feMerge>
                <feMergeNode in="shadowMatrixOuter1"></feMergeNode>
                <feMergeNode in="SourceGraphic"></feMergeNode>
            </feMerge>
        </filter>
    </defs>
    <g id="Desktop" stroke="none" stroke-width="1" fill="none" fill-rule="evenodd">
        <g id="Hennings-Category-page" transform="translate(-735.000000, -1490.000000)">
            <g id="Services-Copy" transform="translate(100.000000, 1180.000000)">
                <g id="Trust-Deeds" filter="url(#filter-1)" transform="translate(480.000000, 285.000000)">
                    <g id="trust-deeds-icon" transform="translate(170.000000, 40.000000)">
                        <path d="M100.4996,50.5 C100.4996,78.114 78.1136,100.5 50.4996,100.5 C22.8856,100.5 0.4996,78.114 0.4996,50.5 C0.4996,22.886 22.8856,0.5 50.4996,0.5 C78.1136,0.5 100.4996,22.886 100.4996,50.5 Z" id="Stroke-1" stroke="#99C8CC"></path>
                        <path d="M65.1071,52.6865 C62.6271,52.6865 60.6091,54.7045 60.6091,57.1835 C60.6091,59.6645 62.6271,61.6815 65.1071,61.6815 C67.5861,61.6815 69.6051,59.6645 69.6051,57.1835 C69.6051,54.7045 67.5861,52.6865 65.1071,52.6865 M65.1071,63.4245 C61.6661,63.4245 58.8661,60.6245 58.8661,57.1835 C58.8661,53.7435 61.6661,50.9435 65.1071,50.9435 C68.5481,50.9435 71.3471,53.7435 71.3471,57.1835 C71.3471,60.6245 68.5481,63.4245 65.1071,63.4245" id="Fill-3" fill="#00757F"></path>
                        <path d="M58.65,63.6406 C61.03,63.9206 62.98,64.7376 65.107,66.3406 C67.234,64.7376 69.184,63.9206 71.563,63.6406 C71.844,61.2596 72.662,59.3106 74.265,57.1836 C72.662,55.0576 71.844,53.1076 71.563,50.7276 C69.183,50.4476 67.233,49.6296 65.107,48.0276 C62.98,49.6296 61.031,50.4476 58.65,50.7276 C58.37,53.1076 57.553,55.0576 55.95,57.1836 C57.553,59.3116 58.37,61.2606 58.65,63.6406 M65.107,68.3186 C64.914,68.3186 64.72,68.2536 64.561,68.1256 C62.298,66.3056 60.337,65.4896 57.79,65.3106 C57.356,65.2796 57.011,64.9356 56.981,64.5016 C56.801,61.9536 55.986,59.9926 54.166,57.7306 C53.909,57.4116 53.909,56.9566 54.166,56.6376 C55.986,54.3746 56.801,52.4136 56.981,49.8656 C57.011,49.4326 57.356,49.0886 57.79,49.0576 C60.337,48.8786 62.299,48.0626 64.561,46.2426 C64.879,45.9856 65.335,45.9856 65.654,46.2436 C67.916,48.0626 69.878,48.8786 72.424,49.0576 C72.858,49.0886 73.203,49.4326 73.233,49.8656 C73.414,52.4136 74.229,54.3756 76.049,56.6376 C76.306,56.9566 76.306,57.4116 76.049,57.7306 C74.229,59.9926 73.414,61.9536 73.233,64.5016 C73.203,64.9356 72.858,65.2796 72.424,65.3106 C69.878,65.4896 67.916,66.3056 65.654,68.1256 C65.494,68.2536 65.3,68.3186 65.107,68.3186" id="Fill-5" fill="#00757F"></path>
                        <path d="M61.1071,78.6464 C61.0201,78.6464 60.9321,78.6334 60.8451,78.6064 L56.0041,77.0804 C55.7841,77.0094 55.6001,76.8554 55.4941,76.6504 C55.3871,76.4454 55.3661,76.2064 55.4351,75.9864 L59.0651,64.4834 C59.2111,64.0234 59.7011,63.7684 60.1581,63.9154 C60.6171,64.0584 60.8721,64.5484 60.7261,65.0074 L57.3601,75.6784 L60.5381,76.6814 L63.6781,66.7264 C63.8241,66.2664 64.3151,66.0114 64.7721,66.1584 C65.2321,66.3014 65.4861,66.7924 65.3411,67.2504 L61.9381,78.0374 C61.8211,78.4094 61.4771,78.6464 61.1071,78.6464" id="Fill-7" fill="#00757F"></path>
                        <path d="M69.1071,78.6464 C68.7371,78.6464 68.3941,78.4094 68.2761,78.0374 L64.8731,67.2504 C64.7281,66.7924 64.9831,66.3014 65.4421,66.1584 C65.8991,66.0114 66.3901,66.2664 66.5351,66.7264 L69.6761,76.6814 L72.8541,75.6784 L69.4871,65.0074 C69.3421,64.5484 69.5971,64.0584 70.0561,63.9154 C70.5141,63.7684 71.0041,64.0234 71.1501,64.4834 L74.7791,75.9864 C74.8491,76.2064 74.8281,76.4454 74.7201,76.6504 C74.6151,76.8554 74.4301,77.0094 74.2101,77.0804 L69.3701,78.6064 C69.2821,78.6334 69.1941,78.6464 69.1071,78.6464" id="Fill-9" fill="#00757F"></path>
                        <path d="M78.5856,64.9013 L76.2556,64.9013 C75.7746,64.9013 75.3836,64.5103 75.3836,64.0293 C75.3836,63.5473 75.7746,63.1583 76.2556,63.1583 L77.7146,63.1583 L77.7146,49.6603 C77.7146,49.1783 78.1056,48.7893 78.5856,48.7893 C79.0676,48.7893 79.4576,49.1783 79.4576,49.6603 L79.4576,64.0293 C79.4576,64.5103 79.0676,64.9013 78.5856,64.9013" id="Fill-11" fill="#00757F"></path>
                        <path d="M53.8444,64.9013 L23.1374,64.9013 C22.6564,64.9013 22.2654,64.5103 22.2654,64.0293 L22.2654,29.8133 C22.2654,29.3323 22.6564,28.9413 23.1374,28.9413 L78.5854,28.9413 C79.0684,28.9413 79.4574,29.3323 79.4574,29.8133 L79.4574,55.0743 C79.4574,55.5543 79.0684,55.9443 78.5854,55.9443 C78.1054,55.9443 77.7144,55.5543 77.7144,55.0743 L77.7144,30.6853 L24.0084,30.6853 L24.0084,63.1583 L53.8444,63.1583 C54.3254,63.1583 54.7164,63.5473 54.7164,64.0293 C54.7164,64.5103 54.3254,64.9013 53.8444,64.9013" id="Fill-13" fill="#00757F"></path>
                        <path d="M74.8278,40.0009 L38.6498,40.0009 C38.1678,40.0009 37.7778,39.6109 37.7778,39.1299 C37.7778,38.6479 38.1678,38.2589 38.6498,38.2589 L74.8278,38.2589 C75.3088,38.2589 75.6998,38.6479 75.6998,39.1299 C75.6998,39.6109 75.3088,40.0009 74.8278,40.0009" id="Fill-15" fill="#00757F"></path>
                        <path d="M74.8278,44.915 L38.6498,44.915 C38.1678,44.915 37.7778,44.525 37.7778,44.044 C37.7778,43.562 38.1678,43.172 38.6498,43.172 L74.8278,43.172 C75.3088,43.172 75.6998,43.562 75.6998,44.044 C75.6998,44.525 75.3088,44.915 74.8278,44.915" id="Fill-17" fill="#00757F"></path>
                        <path d="M52.5163,49.8291 L26.6503,49.8291 C26.1673,49.8291 25.7783,49.4381 25.7783,48.9571 C25.7783,48.4751 26.1673,48.0861 26.6503,48.0861 L52.5163,48.0861 C52.9963,48.0861 53.3873,48.4751 53.3873,48.9571 C53.3873,49.4381 52.9963,49.8291 52.5163,49.8291" id="Fill-19" fill="#00757F"></path>
                        <path d="M50.5163,54.7421 L26.6503,54.7421 C26.1673,54.7421 25.7783,54.3521 25.7783,53.8711 C25.7783,53.3891 26.1673,53.0001 26.6503,53.0001 L50.5163,53.0001 C50.9963,53.0001 51.3873,53.3891 51.3873,53.8711 C51.3873,54.3521 50.9963,54.7421 50.5163,54.7421" id="Fill-21" fill="#00757F"></path>
                        <path d="M50.5163,59.6572 L26.6503,59.6572 C26.1673,59.6572 25.7783,59.2652 25.7783,58.7852 C25.7783,58.3032 26.1673,57.9132 26.6503,57.9132 L50.5163,57.9132 C50.9963,57.9132 51.3873,58.3032 51.3873,58.7852 C51.3873,59.2652 50.9963,59.6572 50.5163,59.6572" id="Fill-23" fill="#00757F"></path>
                        <path d="M63.0192,35.0878 L38.7032,35.0878 C38.2222,35.0878 37.8312,34.6978 37.8312,34.2158 C37.8312,33.7348 38.2222,33.3448 38.7032,33.3448 L63.0192,33.3448 C63.5012,33.3448 63.8912,33.7348 63.8912,34.2158 C63.8912,34.6978 63.5012,35.0878 63.0192,35.0878" id="Fill-25" fill="#00757F"></path>
                        <path d="M34.0944,42.1191 C34.5964,42.1191 34.9654,41.7361 34.9654,41.1951 C34.9654,40.6551 34.5964,40.2861 34.0944,40.2861 C33.6074,40.2861 33.2244,40.6551 33.2244,41.1951 C33.2244,41.7501 33.6074,42.1191 34.0944,42.1191 Z M34.0944,39.0331 C35.2814,39.0331 36.2964,39.9821 36.2964,41.1951 C36.2964,42.4221 35.2814,43.3451 34.0944,43.3451 C32.8954,43.3451 31.9064,42.3961 31.9064,41.1951 C31.9064,39.9821 32.9074,39.0331 34.0944,39.0331 Z M28.3314,37.5821 C28.8334,37.5821 29.2014,37.2001 29.2014,36.6591 C29.2014,36.1191 28.8334,35.7501 28.3314,35.7501 C27.8444,35.7501 27.4614,36.1191 27.4614,36.6591 C27.4614,37.2131 27.8444,37.5821 28.3314,37.5821 Z M27.4354,43.2001 L33.4754,34.6411 L35.0044,34.6411 L28.9644,43.2001 L27.4354,43.2001 Z M28.3314,34.4961 C29.5194,34.4961 30.5334,35.4471 30.5334,36.6591 C30.5334,37.8871 29.5194,38.8081 28.3314,38.8081 C27.1324,38.8081 26.1434,37.8591 26.1434,36.6591 C26.1434,35.4471 27.1454,34.4961 28.3314,34.4961 Z" id="Fill-27" fill="#00757F"></path>
                    </g>
                </g>
            </g>
        </g>
    </g>
</svg>