<?xml version="1.0" encoding="UTF-8"?>
<svg width="129px" height="130px" viewBox="0 0 129 130" version="1.1" xmlns="http://www.w3.org/2000/svg" xmlns:xlink="http://www.w3.org/1999/xlink">
    <!-- Generator: Sketch 52.5 (67469) - http://www.bohemiancoding.com/sketch -->
    <title>wills icon</title>
    <desc>Created with Sketch.</desc>
    <defs>
        <filter x="-6.7%" y="-12.1%" width="113.4%" height="124.3%" filterUnits="objectBoundingBox" id="filter-1">
            <feOffset dx="0" dy="0" in="SourceAlpha" result="shadowOffsetOuter1"></feOffset>
            <feGaussianBlur stdDeviation="7.5" in="shadowOffsetOuter1" result="shadowBlurOuter1"></feGaussianBlur>
            <feColorMatrix values="0 0 0 0 0   0 0 0 0 0   0 0 0 0 0  0 0 0 0.0995244565 0" type="matrix" in="shadowBlurOuter1" result="shadowMatrixOuter1"></feColorMatrix>
            <feMerge>
                <feMergeNode in="shadowMatrixOuter1"></feMergeNode>
                <feMergeNode in="SourceGraphic"></feMergeNode>
            </feMerge>
        </filter>
        <polygon id="path-2" points="0 0.752685014 53.5510552 0.752685014 53.5510552 53.5324719 0 53.5324719"></polygon>
    </defs>
    <g id="Desktop" stroke="none" stroke-width="1" fill="none" fill-rule="evenodd">
        <g id="Hennings-Category-page" transform="translate(-258.000000, -922.000000)">
            <g id="Services" transform="translate(100.000000, 612.000000)">
                <g id="WILLS-AND-PROBATE" filter="url(#filter-1)" transform="translate(3.000000, 285.000000)">
                    <g id="wills-icon" transform="translate(169.551351, 40.000000)">
                        <path d="M99.4135135,50.000198 C99.4135135,77.3407921 77.2695243,99.5051485 49.9540541,99.5051485 C22.6385838,99.5051485 0.494594595,77.3407921 0.494594595,50.000198 C0.494594595,22.659604 22.6385838,0.495247525 49.9540541,0.495247525 C77.2695243,0.495247525 99.4135135,22.659604 99.4135135,50.000198 Z" id="Stroke-1" stroke="#99C8CC"></path>
                        <g id="Group-22" transform="translate(22.000000, 22.772277)">
                            <g id="Group-3" transform="translate(0.448649, 0.000000)">
                                <mask id="mask-3" fill="white">
                                    <use xlink:href="#path-2"></use>
                                </mask>
                                <g id="Clip-2"></g>
                                <path d="M41.7092276,2.55063769 C41.7297103,2.55063769 41.7474,2.54048498 41.7678828,2.53863903 C42.4624345,2.54786877 43.1262621,2.88475415 43.638331,3.45330592 C44.1587793,4.02739554 44.4809172,4.81838396 44.4771931,5.57153046 L44.4771931,24.5700201 L44.4771931,25.8114197 L44.4771931,47.8224954 L15.5546069,47.8224954 C15.5350552,47.8224954 15.5173655,47.8326481 15.4978138,47.8335711 C15.4782621,47.8326481 15.4605724,47.8224954 15.4400897,47.8224954 C14.9438483,47.8224954 14.5416414,48.22122 14.5416414,48.713165 C14.5435034,49.4681574 14.2222966,50.2572999 13.7037103,50.8313895 C13.2149172,51.374098 12.5874,51.6971388 11.9319517,51.7359037 L11.8435034,51.7359037 C11.8202276,51.7359037 11.8016069,51.7460564 11.7801931,51.7479023 C11.0819172,51.7423645 10.4162276,51.4036332 9.89950345,50.8313895 C9.41443448,50.2942188 9.11184828,49.5687615 9.07553793,48.8589948 L9.07553793,5.47831012 C9.07553793,5.44692901 9.06157241,5.42016278 9.05784828,5.38878167 C9.01502069,4.3402836 8.6211931,3.35547072 7.9946069,2.55063769 L41.7092276,2.55063769 Z M51.6005379,49.6047575 C51.4590207,50.0542457 51.2290552,50.4834284 50.9143655,50.8313895 C50.4265034,51.374098 49.8017793,51.6971388 49.1435379,51.7359037 L15.2576069,51.7359037 C15.7417448,51.1138194 16.0992621,50.3902081 16.2510207,49.6047575 L51.6005379,49.6047575 Z M0.900124138,6.46312301 L5.88581379,6.46312301 C6.38298621,6.46312301 6.78612414,6.06532136 6.78612414,5.57153046 C6.78612414,5.0795855 6.38298621,4.68086088 5.88581379,4.68086088 L1.95126207,4.68086088 C2.09371034,4.23044974 2.32274483,3.80034402 2.63650345,3.45330592 C3.12622759,2.91244336 3.75095172,2.58940258 4.4091931,2.55063769 L4.66895172,2.55063769 C5.32626207,2.58940258 5.95191724,2.91244336 6.44071034,3.45330592 C6.95929655,4.02739554 7.28050345,4.81838396 7.27771034,5.57153046 L7.27771034,48.642096 C7.27584828,48.6660933 7.26281379,48.6882447 7.26281379,48.713165 C7.26281379,48.7620826 7.27584828,48.8091542 7.27771034,48.8571489 L7.27771034,49.097122 C7.27771034,49.1792667 7.30377931,49.2521816 7.32426207,49.3278654 C7.4601931,50.3348297 7.89405517,51.2753398 8.55788276,52.0174106 C9.35391724,52.9062343 10.4981586,53.5320104 11.8016069,53.5329334 C11.8937793,53.5329334 11.9822276,53.5218577 12.0716069,53.5163199 L48.9321931,53.5163199 C48.9610552,53.5190888 48.9852621,53.5329334 49.0141241,53.5329334 C50.3175724,53.5320104 51.4618138,52.9062343 52.2578483,52.0174106 C53.0566759,51.1248951 53.5491931,49.9527186 53.5510552,48.713165 C53.5510552,48.4787297 53.4560897,48.2489092 53.2894345,48.0836969 C53.1218483,47.9175617 52.8890897,47.8224954 52.6526069,47.8224954 L46.2750207,47.8224954 L46.2750207,25.8114197 L46.2750207,24.5700201 L46.2750207,5.47831012 C46.2750207,5.44600604 46.2601241,5.41923981 46.257331,5.3878587 C46.2070552,4.21845108 45.7406069,3.11457459 44.9808828,2.26820775 C44.1857793,1.37938412 43.042469,0.754530962 41.7362276,0.752685014 C41.7082966,0.752685014 41.6840897,0.765606645 41.6552276,0.768375566 L4.80674483,0.768375566 C4.71736552,0.762837724 4.62984828,0.752685014 4.5386069,0.752685014 C3.23515862,0.754530962 2.08905517,1.37938412 1.29488276,2.26820775 C0.496055172,3.1598003 0.00353793103,4.33382279 -0.000186206897,5.57153046 C-0.000186206897,5.80688874 0.0966413793,6.03578621 0.263296552,6.20284444 C0.430882759,6.36897969 0.66177931,6.46312301 0.900124138,6.46312301 Z" id="Fill-1" fill="#00757F" mask="url(#mask-3)"></path>
                            </g>
                            <path d="M14.8670195,35.0942621 C15.2755651,34.6874106 15.8276044,34.4387284 16.4481917,34.4387284 C17.0678649,34.4387284 17.6217322,34.6874106 18.0284499,35.0942621 C18.4351676,35.5011135 18.683768,36.0542486 18.683768,36.67504 C18.683768,37.294917 18.4351676,37.8489664 18.0284499,38.2558179 C17.6217322,38.6626693 17.0678649,38.9104373 16.4481917,38.9113515 C15.8276044,38.9104373 15.2755651,38.6626693 14.8670195,38.2558179 C14.4621297,37.8489664 14.2135293,37.294917 14.2135293,36.67504 C14.2135293,36.0542486 14.4621297,35.5011135 14.8670195,35.0942621 Z M17.4499054,43.3492324 L16.9362529,43.1398639 C16.7891033,43.0493508 16.6236744,42.9981516 16.4481917,43.0045515 C16.272709,42.9981516 16.1081939,43.0493508 15.9610444,43.1389496 L15.4473919,43.3483181 L15.4473919,40.534186 C15.7691102,40.6173848 16.1008822,40.6758983 16.4481917,40.6758983 C16.7964151,40.6758983 17.1281871,40.6173848 17.4499054,40.534186 L17.4499054,43.3492324 Z M13.6815974,44.6621283 C13.6815974,44.9574385 13.826005,45.2298918 14.0727775,45.3944609 C14.3168081,45.55903 14.6239028,45.5901153 14.8971806,45.478574 L16.4481917,44.8468114 L17.9982888,45.478574 C18.2715665,45.5901153 18.5795752,45.55903 18.8245198,45.3944609 C19.0694644,45.2298918 19.213872,44.9574385 19.213872,44.6621283 L19.213872,39.5568282 C19.9724691,38.8281527 20.4486486,37.8087384 20.4486486,36.67504 C20.4486486,34.4652423 18.6581768,32.6741816 16.4481917,32.6732673 C14.2391205,32.6741816 12.4486486,34.4652423 12.4486486,36.67504 C12.4486486,37.8087384 12.9248282,38.8263242 13.6815974,39.5549997 L13.6815974,44.6621283 Z" id="Fill-4" fill="#00757F"></path>
                            <path d="M13.3797695,9.9009901 L26.5194536,9.9009901 C27.0317145,9.9009901 27.4486486,9.45718795 27.4486486,8.91089109 C27.4486486,8.36356928 27.0317145,7.92079208 26.5194536,7.92079208 L13.3797695,7.92079208 C12.8646199,7.92079208 12.4486486,8.36356928 12.4486486,8.91089109 C12.4486486,9.45718795 12.8646199,9.9009901 13.3797695,9.9009901" id="Fill-6" fill="#00757F"></path>
                            <path d="M13.3797695,12.8712871 L26.5194536,12.8712871 C27.0317145,12.8712871 27.4486486,12.4285099 27.4486486,11.8811881 C27.4486486,11.3348913 27.0317145,10.8910891 26.5194536,10.8910891 L13.3797695,10.8910891 C12.8646199,10.8910891 12.4486486,11.3348913 12.4486486,11.8811881 C12.4486486,12.4285099 12.8646199,12.8712871 13.3797695,12.8712871" id="Fill-8" fill="#00757F"></path>
                            <path d="M13.3524182,16.8316832 L38.5467483,16.8316832 C39.0448964,16.8316832 39.4486486,16.387881 39.4486486,15.8415842 C39.4486486,15.2942623 39.0448964,14.8514851 38.5467483,14.8514851 L13.3524182,14.8514851 C12.8524009,14.8514851 12.4486486,15.2942623 12.4486486,15.8415842 C12.4486486,16.387881 12.8524009,16.8316832 13.3524182,16.8316832" id="Fill-10" fill="#00757F"></path>
                            <path d="M13.3501714,21.7821782 L38.5471259,21.7821782 C39.0449678,21.7821782 39.4486486,21.3391717 39.4486486,20.7925919 C39.4486486,20.2470377 39.0449678,19.8019802 38.5471259,19.8019802 L13.3501714,19.8019802 C12.8513972,19.8019802 12.4486486,20.2470377 12.4486486,20.7925919 C12.4486486,21.3391717 12.8513972,21.7821782 13.3501714,21.7821782" id="Fill-12" fill="#00757F"></path>
                            <path d="M13.3524182,26.7326733 L38.5467483,26.7326733 C39.0448964,26.7326733 39.4486486,26.2888711 39.4486486,25.7425743 C39.4486486,25.1952524 39.0448964,24.7524752 38.5467483,24.7524752 L13.3524182,24.7524752 C12.8524009,24.7524752 12.4486486,25.1952524 12.4486486,25.7425743 C12.4486486,26.2888711 12.8524009,26.7326733 13.3524182,26.7326733" id="Fill-14" fill="#00757F"></path>
                            <path d="M38.5594203,29.7029703 L21.337877,29.7029703 C20.8476496,29.7029703 20.4486486,30.1449513 20.4486486,30.6925566 C20.4486486,31.2391363 20.8476496,31.6831683 21.337877,31.6831683 L38.5594203,31.6831683 C39.0505692,31.6831683 39.4486486,31.2391363 39.4486486,30.6925566 C39.4486486,30.1449513 39.0505692,29.7029703 38.5594203,29.7029703" id="Fill-16" fill="#00757F"></path>
                            <path d="M38.5375729,34.6534653 L24.3587802,34.6534653 C23.8555643,34.6534653 23.4486486,35.0972675 23.4486486,35.6425394 C23.4486486,36.1898612 23.8555643,36.6336634 24.3587802,36.6336634 L38.5375729,36.6336634 C39.0407889,36.6336634 39.4486486,36.1898612 39.4486486,35.6425394 C39.4486486,35.0972675 39.0407889,34.6534653 38.5375729,34.6534653" id="Fill-18" fill="#00757F"></path>
                            <path d="M38.5375729,39.6039604 L24.3587802,39.6039604 C23.8555643,39.6039604 23.4486486,40.0479924 23.4486486,40.5945721 C23.4486486,41.1411519 23.8555643,41.5841584 24.3587802,41.5841584 L38.5375729,41.5841584 C39.0407889,41.5841584 39.4486486,41.1411519 39.4486486,40.5945721 C39.4486486,40.0479924 39.0407889,39.6039604 38.5375729,39.6039604" id="Fill-20" fill="#00757F"></path>
                        </g>
                    </g>
                </g>
            </g>
        </g>
    </g>
</svg>